<svg width="10" height="10" viewBox="0 0 10 10" fill="none" xmlns="http://www.w3.org/2000/svg">
<path d="M9.24214 9.24256C9.50249 8.98221 9.50249 8.5601 9.24214 8.29975L5.94276 5.00037L9.24304 1.70009C9.50339 1.43974 9.50339 1.01763 9.24304 0.757276C8.98269 0.496926 8.56058 0.496926 8.30023 0.757275L4.99995 4.05756L1.69966 0.757274C1.43931 0.496924 1.0172 0.496924 0.756854 0.757274C0.496505 1.01762 0.496505 1.43973 0.756854 1.70008L4.05714 5.00037L0.75776 8.29975C0.49741 8.5601 0.49741 8.98221 0.75776 9.24256C1.01811 9.50291 1.44022 9.50291 1.70057 9.24256L4.99995 5.94318L8.29933 9.24256C8.55968 9.50291 8.98179 9.50291 9.24214 9.24256Z" fill="#D91515"/>
</svg>
