<svg width="491" height="367" viewBox="0 0 491 367" fill="none" xmlns="http://www.w3.org/2000/svg">
<rect width="491" height="366.545" fill="#171717"/>
<mask id="mask0_337_1978" style="mask-type:alpha" maskUnits="userSpaceOnUse" x="0" y="23" width="491" height="321">
<path d="M491 23.2998H0V343.255H491V23.2998Z" fill="black"/>
</mask>
<g mask="url(#mask0_337_1978)">
<path d="M81.2837 342.982C66.2595 342.982 52.072 335.972 43.0127 323.979C27.0994 302.912 14.8092 279.134 7.2114 253.829C1.6503 235.314 -1.52829 215.802 0.743774 196.602C3.01297 177.401 11.1076 158.482 25.3997 145.469C41.9406 130.413 64.8096 124.623 86.9348 121.371C109.06 118.116 131.81 116.782 152.607 108.559C191.599 93.1366 213.829 73.3603 250.153 52.4127C297.896 24.8787 354.678 11.0929 403.164 37.2956C446.866 60.9115 479.369 94.5899 487.696 143.592C497.935 203.842 483.53 264.546 456.125 319.122C448.795 333.725 433.901 342.982 417.567 342.982H81.2837Z" fill="#252525"/>
</g>
<path opacity="0.2" d="M231.971 98.1035L66.7853 98.7866L67.1747 192.916C67.1863 195.636 69.7112 197.834 72.8142 197.819L227.092 197.18C230.012 197.171 232.369 194.791 232.357 191.869L231.971 98.1035Z" fill="#00A0FF"/>
<path opacity="0.2" d="M231.936 90.1012C231.924 87.1801 229.548 84.8229 226.628 84.8345L72.3495 85.4711C69.2464 85.4856 66.7419 88.0579 66.7535 91.2202L66.7884 99.1377L231.971 98.4518L231.936 90.1012Z" fill="url(#paint0_linear_337_1978)"/>
<mask id="mask1_337_1978" style="mask-type:alpha" maskUnits="userSpaceOnUse" x="13" y="184" width="79" height="160">
<path d="M91.5779 184.766H13.4786V343.552H91.5779V184.766Z" fill="black"/>
</mask>
<g mask="url(#mask1_337_1978)">
<path d="M14.2688 190.152C14.876 188.175 16.0469 186.35 17.6682 185.179C18.8827 186.71 20.0623 188.295 20.8497 190.286C20.9572 190.852 22.0061 191.419 22.1107 191.989C25.3968 200.502 27.0268 208.26 27.4742 216.773C27.6805 220.935 28.834 225.098 31.2746 229.071C31.5332 229.449 32.1346 229.638 32.1695 229.827C33.1225 231.908 35.226 233.044 36.4521 234.558C36.9722 235.314 37.6434 235.881 38.3175 236.451C43.2393 241.557 47.5917 246.667 49.5094 252.91C51.7204 259.721 49.2392 266.72 54.3354 272.774C59.9517 279.587 68.8918 283.938 70.3213 292.64C71.8205 301.723 67.596 311.562 75.3478 319.698C78.1806 322.723 82.6231 324.238 85.302 327.452C89.5265 332.312 90.1657 337.861 90.895 343.456H88.4515C81.2314 343.456 74.6737 338.927 72.4365 332.062C71.9716 330.638 71.376 329.246 70.5567 327.909C68.0056 323.726 63.7201 320.758 60.2509 317.186C55.6806 312.478 52.4671 306.548 51.2468 300.567C50.3607 296.21 50.4536 291.707 48.292 287.58C46.4005 283.97 43.0534 281.177 40.4036 277.968C36.9141 273.739 34.6101 268.664 33.9011 263.65C33.0731 257.796 34.3195 251.919 31.8934 246.222C29.8916 241.528 25.6931 237.729 23.3397 233.14C19.1471 224.964 21.5209 215.892 18.0285 207.51C17.1074 205.301 15.8 203.199 14.9167 200.979C13.4756 197.354 13.2432 193.474 14.2688 190.152Z" fill="#7AB756"/>
</g>
<mask id="mask2_337_1978" style="mask-type:alpha" maskUnits="userSpaceOnUse" x="17" y="183" width="80" height="161">
<path d="M96.0406 183.277H17.1975V343.551H96.0406V183.277Z" fill="black"/>
</mask>
<g mask="url(#mask2_337_1978)">
<path d="M21.675 183.849C25.4812 183.817 29.2206 186.712 32.0563 189.782C40.3631 198.778 44.5876 210.462 46.1886 221.632C46.8801 226.463 47.2084 231.5 49.8669 235.976C52.4005 240.246 56.6657 243.341 60.5939 246.521C66.2916 251.128 71.8091 256.551 74.4095 263.094C77.2598 270.253 76.2254 277.749 78.6718 284.983C82.3821 295.953 93.5857 304.995 95.4771 316.087C96.9734 324.879 92.1213 332.738 93.8704 341.531C93.9982 342.176 94.1697 342.818 94.3585 343.455H90.8952C90.1659 337.86 89.5267 332.311 85.3021 327.451C82.6233 324.237 78.1808 322.722 75.348 319.697C67.5961 311.561 71.8207 301.722 70.3215 292.639C68.892 283.937 59.9518 279.586 54.3355 272.773C49.2393 266.719 51.7206 259.72 49.5095 252.909C47.5919 246.666 43.2395 241.556 38.3176 236.45C37.6435 235.88 36.9724 235.313 36.4523 234.557C35.2262 233.043 33.1226 231.907 32.1696 229.825C32.1348 229.637 31.5333 229.448 31.2747 229.07C28.8341 225.096 27.6807 220.934 27.4744 216.772C27.0269 208.259 25.3969 200.501 22.1109 191.988C22.0063 191.418 20.9574 190.851 20.8499 190.285C20.0625 188.294 18.8829 186.709 17.6684 185.178C18.7957 184.364 20.1438 183.864 21.675 183.849Z" fill="#679E44"/>
</g>
<mask id="mask3_337_1978" style="mask-type:alpha" maskUnits="userSpaceOnUse" x="40" y="136" width="78" height="208">
<path d="M117.611 136.4H40.2555V343.551H117.611V136.4Z" fill="black"/>
</mask>
<g mask="url(#mask3_337_1978)">
<path d="M42.5479 142.746C43.6578 140.389 45.4767 138.308 47.772 137.107C49.1027 139.2 50.3753 141.351 51.0784 143.947C51.122 144.667 52.3975 145.534 52.444 146.254C55.3321 157.337 56.195 167.217 55.396 177.855C54.9921 183.052 55.8144 188.397 58.3421 193.71C58.6181 194.219 59.3678 194.547 59.3852 194.788C60.2888 197.52 62.834 199.259 64.185 201.328C64.7342 202.351 65.5187 203.159 66.3002 203.97C71.8671 211.08 76.696 218.099 78.1749 226.147C79.9444 234.945 75.5891 243.247 81.2315 251.556C87.4231 260.889 98.3361 267.688 98.7835 278.713C99.2571 290.217 92.1793 301.765 100.934 313.074C104.124 317.277 109.65 319.849 112.608 324.258C116.969 330.464 117.23 336.922 117.28 343.456H96.648C96.616 343.25 96.5811 343.047 96.5521 342.837C95.6107 336.024 96.4765 329.072 93.3822 322.515C90.7411 316.925 85.6536 312.574 81.7254 307.595C76.5508 301.038 73.3373 293.179 72.7213 285.56C72.2739 280.015 73.1223 274.443 70.981 268.981C69.1069 264.209 65.2107 260.218 62.2907 255.82C58.4409 250.025 56.2676 243.369 56.1601 237.032C56.0323 229.638 58.6036 222.54 56.3722 215.091C54.533 208.952 49.6896 203.581 47.3739 197.518C43.254 186.717 47.8039 175.829 44.6254 164.88C43.7857 161.993 42.4259 159.18 41.6385 156.288C40.3543 151.562 40.6797 146.711 42.5479 142.746Z" fill="#7AB756"/>
</g>
<mask id="mask4_337_1978" style="mask-type:alpha" maskUnits="userSpaceOnUse" x="47" y="135" width="82" height="209">
<path d="M128.024 135.656H47.6936V343.551H128.024V135.656Z" fill="black"/>
</mask>
<g mask="url(#mask4_337_1978)">
<path d="M121.464 343.072C121.472 343.2 121.49 343.328 121.501 343.456H117.28C117.23 336.922 116.969 330.463 112.608 324.258C109.65 319.849 104.124 317.276 100.934 313.073C92.1793 301.764 99.257 290.216 98.7835 278.712C98.336 267.687 87.423 260.889 81.2314 251.556C75.589 243.246 79.9443 234.945 78.1749 226.147C76.696 218.098 71.8671 211.079 66.3002 203.97C65.5186 203.159 64.7341 202.351 64.185 201.327C62.834 199.258 60.2888 197.52 59.3851 194.788C59.3677 194.546 58.6181 194.218 58.3421 193.709C55.8143 188.396 54.9921 183.051 55.3959 177.854C56.1949 167.216 55.332 157.337 52.444 146.254C52.3975 145.533 51.122 144.667 51.0784 143.946C50.3753 141.35 49.1027 139.2 47.7719 137.107C49.37 136.273 51.2004 135.866 53.1907 136.09C58.1416 136.645 62.5289 140.821 65.7162 145.074C75.0544 157.54 78.6514 172.701 78.9216 186.815C79.0407 192.916 78.6485 199.217 81.3767 205.19C83.98 210.884 89.021 215.395 93.6088 219.956C100.268 226.565 106.556 234.16 108.877 242.685C111.419 252.018 108.865 261.156 110.873 270.518C113.915 284.711 127.01 297.686 127.667 311.748C128.19 322.895 120.615 331.888 121.464 343.072Z" fill="#679E44"/>
</g>
<mask id="mask5_337_1978" style="mask-type:alpha" maskUnits="userSpaceOnUse" x="64" y="323" width="67" height="21">
<path d="M130.999 323.165H64.8008V343.551H130.999V323.165Z" fill="black"/>
</mask>
<g mask="url(#mask5_337_1978)">
<path d="M85.6563 343.551H110.251C121.408 343.551 130.453 334.506 130.453 323.345H65.4574C65.4574 334.506 74.4993 343.551 85.6563 343.551Z" fill="white"/>
</g>
<path d="M115.019 197.483L117.995 197.471L117.646 112.994C117.631 109.826 115.051 107.26 111.89 107.26C111.867 107.26 66.7128 107.449 66.7128 107.449L66.7273 110.425L111.878 110.236C113.418 110.236 114.662 111.477 114.671 113.006L115.019 197.483Z" fill="#78C8F4"/>
<path d="M92.188 92.2267C92.188 93.8776 93.5274 95.2147 95.1777 95.2147C96.828 95.2147 98.1646 93.8776 98.1646 92.2267C98.1646 90.5758 96.828 89.2358 95.1777 89.2358C93.5274 89.2358 92.188 90.5758 92.188 92.2267Z" fill="#F9EDDC"/>
<path d="M71.2569 92.2267C71.2569 93.8776 72.5964 95.2147 74.2438 95.2147C75.8941 95.2147 77.2335 93.8776 77.2335 92.2267C77.2335 90.5758 75.8941 89.2358 74.2438 89.2358C72.5964 89.2358 71.2569 90.5758 71.2569 92.2267Z" fill="#F73B0F"/>
<path d="M81.5046 92.2267C81.5046 93.8776 82.8411 95.2147 84.4914 95.2147C86.1418 95.2147 87.4783 93.8776 87.4783 92.2267C87.4783 90.5758 86.1418 89.2358 84.4914 89.2358C82.8411 89.2358 81.5046 90.5758 81.5046 92.2267Z" fill="#66A1D3"/>
<path d="M203.578 139.586H186.233C184.791 139.586 184.112 138.319 184.71 136.755L200.159 96.3686C200.754 94.8049 202.407 93.5376 203.848 93.5376H221.194C222.632 93.5376 223.315 94.8049 222.717 96.3686L207.268 136.755C206.67 138.319 205.019 139.586 203.578 139.586Z" fill="white"/>
<path d="M194.4 146.451L172.867 161.778L172.734 161.623L166.958 164.754C166.958 164.754 167.655 167.16 169.25 170.587L198.319 155.133C196.872 151.886 195.495 148.884 194.4 146.451Z" fill="#F7E059"/>
<path d="M174.477 197.403C173.843 196.834 173.245 196.139 172.681 195.282V168.53L197.828 155.13C202.117 172.122 200.339 184.934 198.412 197.403H174.477Z" fill="#FD9783"/>
<path d="M187.244 128.681C183.827 120.775 180.273 117.999 173.146 120.109C161.684 123.507 160.095 135.069 160.926 141.162C161.304 143.92 163.131 148.71 165.508 154.067L192.439 141.002C191.387 138.743 188.127 130.727 187.244 128.681Z" fill="#FF723B"/>
<path d="M119.02 106.782C119.034 106.821 119.023 106.799 119.012 106.776L119.02 106.782Z" fill="white"/>
<path d="M176.99 197.543H103.993C98.7806 159.258 106.724 127.724 110.475 116.697C111.788 112.837 114.56 109.805 118.311 108.215C123.599 105.977 130.793 104.841 137.301 104.23C142.886 104.056 151.393 103.091 157.407 104.608C157.407 104.608 177.388 109.77 187.825 128.849C187.825 128.849 172.373 157.258 176.99 197.543Z" fill="#FF723B"/>
<path d="M158.514 108.686C158.514 111.552 154.996 115.831 149.504 115.831C144.013 115.831 138.629 111.552 138.629 108.686C138.629 105.817 143.08 103.492 148.572 103.492C154.063 103.492 158.514 105.817 158.514 108.686Z" fill="#FD9783"/>
<path d="M149.15 125.094C155.057 125.094 160.798 119.757 166.222 109.221C166.504 108.675 166.289 108 165.74 107.718C165.194 107.436 164.52 107.652 164.238 108.201C159.084 118.214 153.842 123.129 148.717 122.85C139.582 122.33 133.149 105.611 133.085 105.443C132.865 104.867 132.22 104.579 131.644 104.794C131.069 105.012 130.778 105.658 130.996 106.233C131.278 106.977 138.01 124.472 148.589 125.076C148.775 125.088 148.964 125.094 149.15 125.094Z" fill="#F7E059"/>
<path d="M147.215 77.0107C147.203 78.1152 147.639 79.1703 148.069 80.1905C148.755 81.8153 149.443 83.44 150.129 85.0648C150.219 85.2799 150.315 85.5008 150.484 85.6636C150.949 86.0996 151.739 85.8728 152.204 85.4369C153.79 83.9574 153.113 80.9898 154.772 79.5888C155.115 79.3011 155.528 79.1093 155.902 78.8622C156.974 78.1588 157.712 76.9671 157.866 75.6911C157.925 75.1883 157.896 74.6622 157.712 74.1884C157.489 73.6158 157.056 73.1479 156.568 72.7758C152.977 70.0291 147.267 72.3137 147.215 77.0107Z" fill="#23273F"/>
<path d="M166.966 72.5143C166.182 71.7412 165.177 71.0988 164.828 70.0379C164.555 69.2154 164.738 68.294 164.514 67.454C164.27 66.5355 163.506 65.7914 162.602 65.588C162.001 65.4514 161.338 65.5328 160.792 65.2392C160.168 64.9049 159.865 64.1812 159.415 63.626C158.285 62.2338 155.995 62.071 154.653 63.286C154.147 63.7394 153.744 64.3672 153.107 64.5736C152.776 64.6811 152.422 64.6579 152.076 64.6608C151.163 64.6666 150.228 64.8671 149.452 65.3729C148.673 65.8815 148.072 66.7215 147.973 67.6575C147.895 68.4248 148.142 69.1776 148.278 69.9333C148.412 70.689 148.409 71.5494 147.918 72.1365C147.694 72.401 147.392 72.587 147.192 72.8689C146.878 73.3136 146.881 73.9269 147.067 74.4327C147.25 74.9413 147.59 75.3686 147.927 75.7842C148.127 76.0371 148.342 76.2987 148.636 76.4295C149.324 76.7347 150.109 76.2028 150.585 75.5924C151.059 74.982 151.437 74.2379 152.114 73.8804C152.727 73.5578 153.47 73.6305 154.104 73.8862C154.737 74.142 155.292 74.5606 155.867 74.9355C156.661 75.4529 157.535 75.9034 158.479 75.9731C159.424 76.0458 160.452 75.6709 160.967 74.8454C161.138 74.5693 161.257 74.2466 161.498 74.0345C161.888 73.6857 162.498 73.7409 162.948 73.988C163.613 74.3513 164.043 75.046 164.366 75.7464C164.691 76.4469 164.947 77.1939 165.4 77.8101C166.377 79.1413 168.678 79.1617 169.041 77.2491C169.352 75.6244 168.024 73.5549 166.966 72.5143Z" fill="#23273F"/>
<path d="M165.859 81.4802C165.88 81.7969 165.839 82.1194 165.74 82.4361C165.691 81.9974 165.592 81.5732 165.467 81.1548C165.636 81.2797 165.766 81.3901 165.859 81.4802Z" fill="#000543"/>
<path d="M142.964 104.675L155.304 107.64C155.315 107.596 155.33 107.562 155.342 107.518C156.053 104.635 157.75 97.5048 157.791 97.5164C160.014 98.0483 164.352 95.04 165.615 89.7704L168.245 79.6933C168.225 79.2632 165.627 79.548 165.543 79.1411C164.918 78.6005 162.315 76.6763 159.284 76.2491C156.797 75.9003 153.999 76.6298 153.145 77.0222C151.111 77.961 149.455 88.195 149.932 88.6368L147.157 87.9858L142.964 104.675Z" fill="#FD9783"/>
<path d="M158.209 90.9648C158.171 91.5721 158.564 92.1416 159.194 92.2926C159.828 92.4437 160.435 92.1125 160.676 91.5547L158.209 90.9648Z" fill="white"/>
<path d="M164.7 84.6782C164.63 84.6607 164.572 84.6084 164.549 84.5387C164.517 84.4283 164.575 84.315 164.683 84.2801C164.723 84.2685 165.656 83.9808 166.67 84.7246C166.763 84.7915 166.78 84.9193 166.716 85.0123C166.647 85.1053 166.519 85.1227 166.426 85.0559C165.586 84.4457 164.839 84.6636 164.807 84.6723C164.773 84.684 164.735 84.684 164.7 84.6782Z" fill="#23273F"/>
<path d="M157.637 83.0468C157.57 83.0294 157.512 82.98 157.489 82.9073C157.454 82.7998 157.515 82.6836 157.625 82.6488C157.663 82.6371 158.596 82.3495 159.61 83.0933C159.703 83.1601 159.723 83.288 159.653 83.3809C159.589 83.4739 159.458 83.4913 159.365 83.4274C158.517 82.8057 157.759 83.0381 157.75 83.041C157.712 83.0555 157.675 83.0555 157.637 83.0468Z" fill="#23273F"/>
<path d="M156.542 97.7227C149.603 95.8654 146.98 89.2239 147.346 87.7037C147.383 87.5381 147.552 87.4334 147.72 87.4741C147.886 87.5148 147.988 87.6834 147.947 87.8491C147.691 88.91 149.969 95.319 156.684 97.1181C157.035 97.1908 157.407 97.2344 157.771 97.2431C157.942 97.246 158.076 97.3884 158.073 97.5599C158.07 97.7314 157.927 97.868 157.756 97.8622C157.352 97.8535 156.945 97.807 156.542 97.7227Z" fill="#FF7664"/>
<path d="M160.38 89.9152C160.229 89.8803 160.124 89.7322 160.144 89.5753C160.168 89.4067 160.322 89.2847 160.493 89.308C161.179 89.3951 161.461 89.3225 161.731 89.2527L161.891 89.215C161.957 89.1975 161.992 89.1598 162.01 89.1278C162.042 89.0784 162.047 89.0203 162.033 88.9622C161.989 88.7937 162.088 88.6252 162.254 88.5816C162.416 88.538 162.588 88.6368 162.631 88.8024C162.69 89.0203 162.658 89.2557 162.541 89.4474C162.428 89.6363 162.245 89.767 162.03 89.8164L161.885 89.8542C161.574 89.9355 161.219 90.0256 160.412 89.921C160.4 89.921 160.391 89.9181 160.38 89.9152Z" fill="#FF7664"/>
<path d="M158.7 84.724C158.604 85.1279 158.34 85.4068 158.11 85.3516C157.884 85.2964 157.776 84.9274 157.872 84.5264C157.968 84.1226 158.232 83.8436 158.462 83.8959C158.689 83.9512 158.796 84.3231 158.7 84.724Z" fill="#000543"/>
<path d="M165.627 86.4388C165.531 86.8398 165.281 87.1245 165.072 87.0751C164.86 87.0228 164.767 86.6567 164.863 86.2529C164.962 85.8519 165.208 85.5672 165.421 85.6195C165.63 85.6689 165.723 86.035 165.627 86.4388Z" fill="#000543"/>
<path d="M151.835 85.8872C151.62 88.5758 150.179 90.3081 148.618 89.7558C147.058 89.2065 145.969 86.5819 146.184 83.8962C146.401 81.2076 147.843 79.4782 149.4 80.0275C150.963 80.5769 152.053 83.2015 151.835 85.8872Z" fill="#FD9783"/>
<path d="M148.97 85.8898C148.871 85.8665 148.787 85.7968 148.749 85.6951C148.691 85.5352 148.772 85.355 148.932 85.2969C149.031 85.262 149.115 85.1719 149.156 85.0614C149.199 84.9481 149.193 84.8318 149.144 84.7446C149.063 84.5935 149.118 84.4045 149.269 84.3232C149.42 84.2418 149.609 84.297 149.69 84.4481C149.824 84.6952 149.841 84.9975 149.737 85.2794C149.629 85.5614 149.417 85.7794 149.147 85.8782C149.089 85.9014 149.025 85.9043 148.97 85.8898Z" fill="#FF7664"/>
<path d="M168.843 79.0133C167.672 77.2549 168.642 73.8629 167.024 73.0287C164.653 71.8051 158.985 72.0521 156.346 72.2875C155.263 72.3806 153.845 75.9237 152.825 76.2172C152.302 76.3684 151.791 76.5486 151.297 76.7549L150.352 80.6962C150.692 81.1933 150.997 81.7106 151.256 82.2484C151.541 81.0741 151.765 79.8795 152.462 78.8796C153.139 77.9118 154.409 77.3653 155.713 77.2229C157.073 77.0718 158.479 77.313 159.836 77.624C160.452 77.7664 161.062 77.935 161.64 78.185C163.462 78.9785 164.886 80.0684 166.702 80.8765C167.881 81.3909 169.523 80.0335 168.843 79.0133Z" fill="#23273F"/>
<path d="M155.464 86.8375C155.251 87.7269 154.357 88.2733 153.47 88.0582C152.584 87.8461 152.038 86.9537 152.25 86.0672C152.462 85.1778 153.357 84.6314 154.243 84.8436C155.129 85.0587 155.676 85.951 155.464 86.8375Z" fill="#FF7664"/>
<path d="M166.115 87.8658C165.322 87.8106 164.584 88.328 164.392 89.1244C164.2 89.9208 164.572 90.5195 165.301 90.8276L166.115 87.8658Z" fill="#FF7664"/>
<path d="M150.64 83.0906C150.51 83.544 150.318 84.0091 150.428 84.4654C150.539 84.9217 151.149 85.2705 151.486 84.945C151.593 84.8403 151.646 84.6921 151.681 84.5439C151.814 83.9626 151.695 83.358 151.663 82.7621C151.57 81.056 152.247 79.3266 153.47 78.1349C153.758 77.8588 154.092 77.571 154.133 77.1728C154.171 76.7833 153.886 76.4113 153.523 76.2601C153.159 76.1119 152.741 76.1526 152.369 76.2805C151.657 76.5188 151.056 77.0682 150.748 77.7512C150.004 79.3992 151.134 81.3466 150.64 83.0906Z" fill="#23273F"/>
<path d="M199.514 125.431L141.416 144.422L141.366 141.597L107.741 146.544C108.921 154.592 111.794 162.969 117.498 170.721C121.371 175.988 127.885 178.638 134.32 177.493C149.772 174.741 181.003 166.591 204.863 143.626L199.514 125.431Z" fill="#F99783"/>
<path d="M186.77 134.02L189.449 120.827C189.687 119.655 191.16 119.126 192.139 119.885C193.255 120.751 194.159 122.469 193.182 125.876L186.77 134.02Z" fill="#FD9783"/>
<path d="M211.289 113.476C211.94 112.546 211.688 111.281 210.729 110.668C209.77 110.055 208.454 110.317 207.803 111.247L200.961 121.033C200.838 121.205 200.612 121.274 200.4 121.21C200.077 121.111 199.938 120.763 200.118 120.507L205.322 113.066C205.972 112.136 205.72 110.872 204.761 110.258C203.802 109.648 202.483 109.907 201.832 110.837L193.357 122.957C191.561 123.998 189.888 125.32 188.949 126.628C186.936 129.442 186.259 136.377 186.822 139.458C187.892 145.3 187.802 142.786 191.303 146.329C195.687 150.767 202.262 148.073 206.295 142.1C208.747 138.461 209.793 136.388 211.519 132.38C211.629 132.124 211.702 131.866 211.749 131.61L216.697 124.535C217.35 123.605 217.098 122.341 216.139 121.728C215.18 121.114 213.861 121.376 213.21 122.306L210.334 126.419C210.095 126.762 209.596 126.82 209.27 126.544C208.994 126.308 208.939 125.931 209.134 125.652L213.986 118.714C214.637 117.781 214.387 116.516 213.425 115.906C212.469 115.293 211.15 115.554 210.499 116.484L205.711 123.329C205.551 123.562 205.223 123.62 204.973 123.469C204.711 123.306 204.639 122.986 204.804 122.748L211.289 113.476Z" fill="#FD9783"/>
<path d="M219.983 99.7724C220.064 99.7724 220.209 99.7898 220.276 99.8916C220.34 99.9875 220.331 100.156 220.247 100.342C220.044 100.804 219.465 101.211 219.015 101.211H213.149C213.068 101.211 212.922 101.197 212.856 101.095C212.792 100.996 212.803 100.827 212.885 100.641C213.088 100.179 213.666 99.7724 214.116 99.7724H219.983ZM213.149 101.955H219.015C219.762 101.955 220.602 101.38 220.927 100.641C221.116 100.223 221.104 99.7986 220.901 99.4847C220.712 99.194 220.378 99.0283 219.983 99.0283H214.116C213.37 99.0283 212.53 99.6067 212.205 100.342C212.016 100.764 212.027 101.185 212.231 101.499C212.42 101.79 212.754 101.955 213.149 101.955Z" fill="white"/>
<path d="M106.599 140.025L107.741 146.544L141.366 141.597L140.904 135.485L106.599 140.025Z" fill="#F7E059"/>
<path opacity="0.2" d="M227.392 197.017L214.314 197.069L214.056 134.691C214.032 128.954 218.661 124.286 224.393 124.26L232.093 124.23L232.375 191.991C232.386 194.755 230.155 197.005 227.392 197.017Z" fill="#78C8F4"/>
<path opacity="0.2" d="M457.131 112.052H270.16V218.598C270.16 221.676 273.008 224.173 276.52 224.173H451.146C454.452 224.173 457.131 221.493 457.131 218.185V112.052Z" fill="#00A0FF"/>
<path opacity="0.2" d="M457.131 102.995C457.131 99.6872 454.452 97.0073 451.146 97.0073H276.52C273.008 97.0073 270.16 99.9081 270.16 103.486V112.447H457.131V102.995Z" fill="url(#paint1_linear_337_1978)"/>
<path d="M428.474 105.012C428.474 106.881 426.96 108.395 425.092 108.395C423.224 108.395 421.71 106.881 421.71 105.012C421.71 103.143 423.224 101.629 425.092 101.629C426.96 101.629 428.474 103.143 428.474 105.012Z" fill="#F9EDDC"/>
<path d="M440.567 105.012C440.567 106.881 439.053 108.395 437.185 108.395C435.319 108.395 433.803 106.881 433.803 105.012C433.803 103.143 435.319 101.629 437.185 101.629C439.053 101.629 440.567 103.143 440.567 105.012Z" fill="#66A1D3"/>
<path d="M342.823 113.81L352.743 102.826C353.623 101.853 353.135 100.199 351.827 99.8237C350.34 99.3965 348.233 99.7133 345.86 102.803L342.823 113.81Z" fill="#FD9783"/>
<path d="M345.066 78.6291C345.467 77.4433 346.746 76.8445 347.908 77.295C349.073 77.7485 349.698 79.0884 349.297 80.2743L345.093 92.7347C345.017 92.9527 345.107 93.1998 345.299 93.3451C345.595 93.5689 345.993 93.4672 346.104 93.1387L349.3 83.6662C349.701 82.4803 350.982 81.8787 352.144 82.3321C353.306 82.7855 353.934 84.1255 353.533 85.3113L348.323 100.742C348.573 103.018 348.486 105.367 347.94 107.052C346.763 110.674 341.005 115.668 337.983 117.31C335.505 118.655 334.409 118.606 329.008 117.807C322.241 116.807 320.355 109.206 323.017 101.731C324.638 97.176 325.794 94.8972 328.215 90.7524C328.372 90.485 328.549 90.2525 328.746 90.0432L331.785 81.0358C332.186 79.847 333.465 79.2482 334.63 79.7017C335.792 80.1522 336.417 81.495 336.019 82.6809L334.249 87.9185C334.104 88.3516 334.374 88.8341 334.828 88.9416C335.217 89.0347 335.586 88.837 335.708 88.4824L338.689 79.6464C339.09 78.4606 340.368 77.8589 341.533 78.3152C342.696 78.7658 343.32 80.1057 342.919 81.2916L339.979 90.0084C339.877 90.3048 340.04 90.6333 340.336 90.7553C340.65 90.8832 340.978 90.7408 341.08 90.4385L345.066 78.6291Z" fill="#FD9783"/>
<path d="M330.405 98.8445L338.846 108.401C339.549 109.195 340.758 109.27 341.548 108.567L361.962 90.43C362.752 89.7295 362.825 88.5145 362.125 87.721L353.684 78.1642C352.984 77.3708 351.775 77.2981 350.985 78.0015L330.571 96.1356C329.778 96.839 329.705 98.051 330.405 98.8445Z" fill="#5A67A8"/>
<path d="M276.881 143.742C284.862 131.592 297.588 115.385 323.005 101.701L338.724 116.722L309.965 149.616L312.644 150.831L296.609 178.757C283.383 174.793 280.832 173.002 275.777 164.341C272.342 158.458 273.144 149.424 276.881 143.742Z" fill="white"/>
<path d="M351.165 76.5716C352.072 74.537 353.87 72.9442 355.959 72.2146C357.243 71.767 358.423 71.0607 359.37 70.0754C361.203 68.1716 363.627 66.8375 366.221 66.3492C368.784 65.8696 371.486 66.2213 373.86 67.3025C375.161 67.8955 376.611 68.1396 378.026 67.9536C380.725 67.599 383.544 68.1338 385.903 69.4999C388.143 70.7933 389.947 72.8163 391.028 75.1706C391.72 76.6849 392.923 77.8941 394.346 78.7486C396.162 79.8415 397.641 81.5098 398.548 83.4369C399.527 85.5209 401.288 87.1486 403.507 87.7241C405.044 88.1223 406.488 88.9943 407.563 90.1772C409.031 91.7904 409.876 93.8802 410.202 96.0543C410.425 97.5308 411.123 98.8737 412.044 100.045C413.74 102.208 414.484 105.14 413.891 107.84C413.467 109.77 412.378 111.52 410.896 112.814C409.01 114.465 407.921 116.819 407.999 119.33C408.066 121.408 407.47 123.513 406.236 125.187C404.916 126.971 402.92 128.198 400.765 128.678C398.882 129.099 397.214 130.099 395.924 131.541C395.189 132.346 394.192 132.799 393.196 133.133C388.073 134.845 382.132 133.613 377.983 130.175C376.722 129.128 375.153 128.57 373.526 128.41C370.948 128.154 368.453 126.916 366.529 125.14C363.964 122.774 362.316 119.545 361.253 116.211C361.044 115.552 360.925 114.758 360.98 114.04C361.084 112.735 360.919 111.418 360.312 110.259C360.035 109.733 359.861 109.145 359.812 108.558C359.681 107.032 360.248 105.518 361.05 104.219C361.285 103.838 361.541 103.472 361.814 103.123C363.455 101.019 364.065 98.2662 363.214 95.7317C362.613 93.9325 362.537 91.956 363.092 90.1394C363.525 91.2468 362.581 92.4647 361.485 92.9152C359.925 93.5576 357.99 93.1303 356.839 91.8892C355.692 90.6481 355.407 88.6774 356.157 87.1573C356.302 88.3316 354.492 88.878 353.58 88.131C352.536 87.2736 351.671 84.3496 351.116 83.0358C350.264 81.007 350.27 78.5829 351.165 76.5716Z" fill="#F9DE6B"/>
<path d="M374.063 102.917C370.643 102.257 367.227 103.928 364.292 105.815C360.497 108.256 356.988 111.145 353.861 114.404C352.603 115.711 351.38 117.127 350.752 118.836C350.128 120.542 350.206 122.617 351.374 124.01C352.789 125.687 355.253 125.896 357.441 125.931C362.302 126.009 367.168 125.87 372.015 125.512C377.221 125.126 384.68 122.94 384.921 116.444C385.127 110.901 379.36 103.937 374.063 102.917Z" fill="white"/>
<path d="M371.213 115.708C371.196 115.753 371.21 115.728 371.222 115.703L371.213 115.708Z" fill="white"/>
<path d="M409.824 224.228H337.6C334.755 223.803 332.643 221.516 332.509 218.537C331.498 195.671 328.302 162.774 327.878 147.599C327.555 136.127 344.73 108.32 377.219 113.118C388.027 114.118 404.954 121.972 408.798 127.834C408.7 127.84 405.129 168.035 405.129 168.035C405.129 168.035 409.002 203.914 409.824 224.228Z" fill="white"/>
<path d="M371.75 131.994C371.832 131.994 371.916 131.979 371.997 131.95C374.563 131.046 377.262 129.985 379.624 128.369C381.481 127.102 383.927 124.913 385.057 121.702C386.022 118.964 385.941 115.668 384.813 111.907C384.694 111.511 384.279 111.29 383.887 111.404C383.494 111.523 383.271 111.941 383.387 112.337C384.421 115.79 384.511 118.772 383.657 121.205C382.66 124.033 380.458 125.989 378.787 127.134C376.568 128.651 373.976 129.669 371.506 130.541C371.117 130.677 370.914 131.104 371.05 131.494C371.158 131.802 371.445 131.994 371.75 131.994Z" fill="#F7EBDA"/>
<path d="M355.358 130.543C355.558 130.543 355.756 130.465 355.901 130.305C356.183 130.003 356.166 129.532 355.866 129.25C352.263 125.878 351.305 119.844 353.681 115.514C353.879 115.15 353.748 114.697 353.388 114.496C353.031 114.299 352.577 114.429 352.38 114.793C349.643 119.778 350.706 126.463 354.852 130.343C354.995 130.477 355.178 130.543 355.358 130.543Z" fill="#F7EBDA"/>
<path d="M374.987 149.509C375.022 149.509 375.06 149.506 375.097 149.503C375.504 149.44 375.783 149.059 375.722 148.652C375.597 147.823 375.333 147.033 375.074 146.268C374.676 145.085 374.301 143.969 374.508 142.894C374.67 142.063 375.17 141.313 375.702 140.519C376.001 140.072 376.312 139.607 376.571 139.11C378.128 136.136 377.547 132.25 375.19 129.87C374.9 129.576 374.429 129.573 374.139 129.867C373.848 130.157 373.845 130.631 374.136 130.925C376.016 132.823 376.498 136.043 375.257 138.412C375.034 138.839 374.758 139.249 374.467 139.682C373.877 140.566 373.267 141.478 373.049 142.606C372.764 144.071 373.223 145.431 373.665 146.748C373.915 147.483 374.147 148.178 374.252 148.876C374.307 149.245 374.624 149.509 374.987 149.509Z" fill="#F7EBDA"/>
<path d="M352.24 145.376C352.536 145.376 352.818 145.193 352.932 144.899C353.745 142.798 353.946 140.423 353.504 138.214C353.382 137.621 353.219 137.043 353.062 136.482C352.813 135.598 352.577 134.764 352.513 133.912C352.356 131.84 353.26 129.936 354.044 128.704C354.268 128.358 354.166 127.893 353.821 127.672C353.475 127.445 353.013 127.55 352.792 127.896C351.886 129.32 350.84 131.541 351.029 134.026C351.104 135.029 351.371 135.973 351.63 136.889C351.787 137.447 351.935 137.976 352.045 138.511C352.432 140.443 352.258 142.519 351.546 144.356C351.398 144.742 351.586 145.175 351.97 145.324C352.057 145.358 352.15 145.376 352.24 145.376Z" fill="#F7EBDA"/>
<path d="M375.199 152.07H375.315C376.254 152.07 377.021 151.3 377.021 150.353V148.699C377.021 147.754 376.254 146.984 375.315 146.984H375.199C374.258 146.984 373.494 147.754 373.494 148.699V150.353C373.494 151.3 374.258 152.07 375.199 152.07Z" fill="#F7EBDA"/>
<path d="M352.263 149.506H352.351C353.158 149.506 353.815 148.844 353.815 148.033V145.894C353.815 145.083 353.158 144.42 352.351 144.42H352.263C351.456 144.42 350.796 145.083 350.796 145.894V148.033C350.796 148.844 351.456 149.506 352.263 149.506Z" fill="#F7EBDA"/>
<path d="M402.18 215.116C402.528 215.116 402.842 214.866 402.909 214.505C402.984 214.101 402.72 213.709 402.316 213.633C401.689 213.511 386.908 210.486 383.811 192.299C383.75 191.939 383.442 191.677 383.079 191.677H335.952C335.664 191.677 335.4 191.846 335.278 192.107C335.124 192.442 331.486 200.377 331.983 211.16C332.004 211.573 332.361 211.904 332.762 211.872C333.172 211.855 333.488 211.503 333.471 211.09C333.052 202.074 335.705 194.953 336.44 193.174H382.457C385.97 211.863 401.877 215.072 402.04 215.101C402.087 215.11 402.133 215.116 402.18 215.116Z" fill="#F7EBDA"/>
<path d="M405.698 222.734C406.111 222.734 406.442 222.403 406.442 221.99V217.81C406.442 217.398 406.111 217.066 405.698 217.066C405.288 217.066 404.954 217.398 404.954 217.81V221.99C404.954 222.403 405.288 222.734 405.698 222.734Z" fill="#F7EBDA"/>
<path d="M401.354 222.734C401.767 222.734 402.098 222.403 402.098 221.99V217.81C402.098 217.398 401.767 217.066 401.354 217.066C400.945 217.066 400.611 217.398 400.611 217.81V221.99C400.611 222.403 400.945 222.734 401.354 222.734Z" fill="#F7EBDA"/>
<path d="M397.011 222.734C397.423 222.734 397.754 222.403 397.754 221.99V217.81C397.754 217.398 397.423 217.066 397.011 217.066C396.601 217.066 396.267 217.398 396.267 217.81V221.99C396.267 222.403 396.601 222.734 397.011 222.734Z" fill="#F7EBDA"/>
<path d="M392.667 222.734C393.079 222.734 393.411 222.403 393.411 221.99V217.81C393.411 217.398 393.079 217.066 392.667 217.066C392.257 217.066 391.923 217.398 391.923 217.81V221.99C391.923 222.403 392.257 222.734 392.667 222.734Z" fill="#F7EBDA"/>
<path d="M388.323 222.734C388.736 222.734 389.067 222.403 389.067 221.99V217.81C389.067 217.398 388.736 217.066 388.323 217.066C387.914 217.066 387.58 217.398 387.58 217.81V221.99C387.58 222.403 387.914 222.734 388.323 222.734Z" fill="#F7EBDA"/>
<path d="M383.98 222.734C384.392 222.734 384.723 222.403 384.723 221.99V217.81C384.723 217.398 384.392 217.066 383.98 217.066C383.57 217.066 383.236 217.398 383.236 217.81V221.99C383.236 222.403 383.57 222.734 383.98 222.734Z" fill="#F7EBDA"/>
<path d="M379.636 222.734C380.046 222.734 380.38 222.403 380.38 221.99V217.81C380.38 217.398 380.046 217.066 379.636 217.066C379.226 217.066 378.892 217.398 378.892 217.81V221.99C378.892 222.403 379.226 222.734 379.636 222.734Z" fill="#F7EBDA"/>
<path d="M375.292 222.734C375.702 222.734 376.036 222.403 376.036 221.99V217.81C376.036 217.398 375.702 217.066 375.292 217.066C374.882 217.066 374.548 217.398 374.548 217.81V221.99C374.548 222.403 374.882 222.734 375.292 222.734Z" fill="#F7EBDA"/>
<path d="M370.948 222.734C371.358 222.734 371.692 222.403 371.692 221.99V217.81C371.692 217.398 371.358 217.066 370.948 217.066C370.539 217.066 370.205 217.398 370.205 217.81V221.99C370.205 222.403 370.539 222.734 370.948 222.734Z" fill="#F7EBDA"/>
<path d="M366.605 222.734C367.015 222.734 367.349 222.403 367.349 221.99V217.81C367.349 217.398 367.015 217.066 366.605 217.066C366.192 217.066 365.861 217.398 365.861 217.81V221.99C365.861 222.403 366.192 222.734 366.605 222.734Z" fill="#F7EBDA"/>
<path d="M362.261 222.734C362.671 222.734 363.005 222.403 363.005 221.99V217.81C363.005 217.398 362.671 217.066 362.261 217.066C361.849 217.066 361.517 217.398 361.517 217.81V221.99C361.517 222.403 361.849 222.734 362.261 222.734Z" fill="#F7EBDA"/>
<path d="M357.917 222.734C358.327 222.734 358.661 222.403 358.661 221.99V217.81C358.661 217.398 358.327 217.066 357.917 217.066C357.505 217.066 357.174 217.398 357.174 217.81V221.99C357.174 222.403 357.505 222.734 357.917 222.734Z" fill="#F7EBDA"/>
<path d="M353.574 222.734C353.983 222.734 354.318 222.403 354.318 221.99V217.81C354.318 217.398 353.983 217.066 353.574 217.066C353.161 217.066 352.83 217.398 352.83 217.81V221.99C352.83 222.403 353.161 222.734 353.574 222.734Z" fill="#F7EBDA"/>
<path d="M349.23 222.734C349.64 222.734 349.974 222.403 349.974 221.99V217.81C349.974 217.398 349.64 217.066 349.23 217.066C348.817 217.066 348.486 217.398 348.486 217.81V221.99C348.486 222.403 348.817 222.734 349.23 222.734Z" fill="#F7EBDA"/>
<path d="M344.886 222.734C345.296 222.734 345.63 222.403 345.63 221.99V217.81C345.63 217.398 345.296 217.066 344.886 217.066C344.474 217.066 344.143 217.398 344.143 217.81V221.99C344.143 222.403 344.474 222.734 344.886 222.734Z" fill="#F7EBDA"/>
<path d="M340.543 222.734C340.952 222.734 341.286 222.403 341.286 221.99V217.81C341.286 217.398 340.952 217.066 340.543 217.066C340.13 217.066 339.799 217.398 339.799 217.81V221.99C339.799 222.403 340.13 222.734 340.543 222.734Z" fill="#F7EBDA"/>
<path d="M336.196 222.734C336.609 222.734 336.94 222.403 336.94 221.99V217.81C336.94 217.398 336.609 217.066 336.196 217.066C335.786 217.066 335.452 217.398 335.452 217.81V221.99C335.452 222.403 335.786 222.734 336.196 222.734Z" fill="#F7EBDA"/>
<path d="M338.997 126.884L291.126 166.789L336.271 169.919L338.997 126.884Z" fill="#F9EDDC"/>
<path d="M339.224 166.559C339.224 166.559 306.287 188.416 283.462 173.753L283.049 152.82L344.259 121.234L339.224 166.559Z" fill="white"/>
<path d="M302.033 144.684C302.155 144.684 302.28 144.655 302.397 144.591L347.237 119.583C347.597 119.385 347.728 118.929 347.527 118.568C347.327 118.208 346.874 118.074 346.516 118.277L301.673 143.283C301.316 143.483 301.185 143.94 301.383 144.3C301.519 144.547 301.775 144.684 302.033 144.684Z" fill="#F7EBDA"/>
<path d="M414.81 134.2C409.824 127.163 395.5 117.644 388.561 121.873C381.26 126.32 379.778 147.684 385.551 156.04C390.601 163.347 398.292 173.764 404.943 183.754L433.564 164.896C427.199 153.622 419.499 140.812 414.81 134.2Z" fill="white"/>
<path d="M406.364 126.178C418.023 135.328 431.499 153.384 436.926 164.751L423.698 174.392L406.364 126.178Z" fill="white"/>
<path d="M415.62 224.228C415.286 217.017 414.955 209.928 414.592 204.498C414.197 198.598 413.29 196.075 410.26 191.006C407.738 186.791 405.117 183.01 402.909 180.185L431.333 160.876C432.545 162.69 433.69 164.501 434.765 166.326L436.926 164.751C446.907 185.658 448.086 208.198 447.142 224.228H415.62Z" fill="white"/>
<path d="M414.725 224.228L412.66 189.195C412.636 188.783 412.947 188.431 413.36 188.405C413.772 188.379 414.121 188.695 414.144 189.108L416.216 224.228H414.725Z" fill="#F7EBDA"/>
<path d="M413.618 197.218C413.764 197.218 413.912 197.174 414.04 197.087C414.38 196.851 414.464 196.386 414.231 196.046L391.984 163.548C391.752 163.208 391.29 163.121 390.95 163.356C390.61 163.589 390.526 164.057 390.758 164.397L413.005 196.895C413.151 197.104 413.383 197.218 413.618 197.218Z" fill="#F7EBDA"/>
<path d="M356.261 82.3648C356.133 82.7134 356.075 83.0882 356.078 83.4776C356.279 83.004 356.534 82.5594 356.813 82.1323C356.581 82.2166 356.398 82.295 356.261 82.3648Z" fill="#000543"/>
<path d="M373.064 115.011C373.011 116.377 370.861 117.092 369.505 117.016L360.872 116.912C360.564 116.531 360.991 113.825 360.997 113.52C360.997 113.52 361.311 103.32 361.212 103.318C358.159 103.219 354.219 99.6233 353.847 92.0023L354.193 79.5534C354.361 79.0768 357.171 80.2685 357.403 79.8383C358.281 79.443 361.84 78.1554 365.373 78.696C368.273 79.1378 371.161 80.8992 371.98 81.6287C373.944 83.3669 372.372 95.432 371.692 95.7663L373.622 95.807L373.064 115.011Z" fill="#FD9783"/>
<path d="M361.651 95.6007C361.491 96.2951 360.861 96.8065 360.102 96.7629C359.347 96.7222 358.777 96.144 358.693 95.438L361.651 95.6007Z" fill="white"/>
<path d="M361.055 103.62C369.237 103.862 373.511 96.6824 373.61 94.8833C373.618 94.7496 373.517 94.6362 373.383 94.6304C373.249 94.6217 373.136 94.7234 373.127 94.86C373.034 96.5633 368.932 103.368 361.075 103.138C360.945 103.132 360.831 103.24 360.829 103.37C360.826 103.504 360.927 103.615 361.055 103.62Z" fill="#FF7664"/>
<path d="M359.573 93.6915C359.756 93.7031 359.919 93.5723 359.951 93.3892C359.983 93.1915 359.849 93.0026 359.652 92.9706C358.853 92.8369 358.562 92.6625 358.283 92.491L358.118 92.3951C358.048 92.3544 358.022 92.2992 358.01 92.2556C357.996 92.1917 358.007 92.1219 358.042 92.0609C358.147 91.8894 358.094 91.6656 357.926 91.5609C357.755 91.4563 357.531 91.5115 357.426 91.6801C357.287 91.9068 357.246 92.1829 357.31 92.4358C357.374 92.6887 357.534 92.898 357.76 93.0288L357.909 93.116C358.231 93.3107 358.597 93.5345 359.536 93.6885C359.547 93.6915 359.562 93.6915 359.573 93.6915Z" fill="#FF7664"/>
<path d="M370.481 92.0374C369.824 95.13 370.856 97.5628 372.785 97.4698C374.717 97.3768 376.812 94.7928 377.471 91.6973C378.128 88.6048 377.097 86.172 375.167 86.2679C373.235 86.3609 371.14 88.9448 370.481 92.0374Z" fill="#FD9783"/>
<path d="M373.688 93.0056C373.805 93.0114 373.924 92.9591 373.996 92.8602C374.118 92.7004 374.086 92.4708 373.927 92.3516C373.828 92.276 373.767 92.1481 373.755 92.0086C373.746 91.8691 373.79 91.7412 373.874 91.6569C374.017 91.5145 374.017 91.2849 373.877 91.1425C373.738 91 373.505 90.9971 373.366 91.1396C373.13 91.3721 373.011 91.7063 373.035 92.058C373.058 92.4126 373.223 92.7294 373.491 92.93C373.552 92.9765 373.619 92.9998 373.688 93.0056Z" fill="#FF7664"/>
<path d="M371.48 79.6669C371.48 79.6669 361.796 84.518 354.192 79.5536C354.192 79.5536 364.275 71.8599 371.48 79.6669Z" fill="#F9DE6B"/>
<path d="M371.559 88.9153C371.532 89.2322 371.498 89.5606 371.596 89.86C371.698 90.1594 371.98 90.4268 372.294 90.3919C372.616 90.3541 372.825 90.0344 372.974 89.7437C374.481 86.7674 374.819 83.0702 373.29 80.1084C372.979 79.5039 372.587 78.9255 372.029 78.5418C371.474 78.1581 370.733 77.9954 370.109 78.254C367.924 79.1609 370.152 81.6605 370.652 82.9191C371.405 84.8142 371.727 86.8807 371.559 88.9153Z" fill="#F9DE6B"/>
<path d="M365.495 92.2756C365.495 93.2812 366.306 94.098 367.305 94.098C368.308 94.098 369.118 93.2812 369.118 92.2756C369.118 91.2699 368.308 90.4561 367.305 90.4561C366.306 90.4561 365.495 91.2699 365.495 92.2756Z" fill="#FF7664"/>
<path d="M353.896 89.5903C354.672 89.663 355.285 90.3112 355.285 91.1105C355.285 91.9127 354.672 92.5638 353.89 92.6335C353.853 92.2004 353.835 91.7674 353.823 91.3343C353.873 90.753 353.922 90.1716 353.896 89.5903Z" fill="#FF7664"/>
<path d="M363.528 88.2883C363.528 88.7155 363.743 89.0614 364.01 89.0614C364.274 89.0614 364.49 88.7155 364.49 88.2883C364.49 87.861 364.274 87.5151 364.01 87.5151C363.743 87.5151 363.528 87.861 363.528 88.2883Z" fill="#000543"/>
<path d="M354.931 88.093C354.931 88.5231 355.149 88.869 355.413 88.869C355.677 88.869 355.895 88.5231 355.895 88.093C355.895 87.6686 355.677 87.3198 355.413 87.3198C355.149 87.3198 354.931 87.6686 354.931 88.093Z" fill="#000543"/>
<path d="M365.149 86.689C365.236 86.689 365.326 86.6512 365.384 86.5728C365.489 86.4421 365.466 86.2532 365.335 86.1515C364.728 85.6721 363.862 85.5907 363.176 85.951C363.031 86.0266 362.973 86.2096 363.051 86.3578C363.127 86.506 363.307 86.5641 363.455 86.4856C363.926 86.2387 364.545 86.2968 364.963 86.6251C365.018 86.6687 365.082 86.689 365.149 86.689Z" fill="#F9DE6B"/>
<path d="M354.582 86.5406C354.631 86.5406 354.684 86.529 354.73 86.5C355.183 86.2414 355.759 86.2181 356.232 86.4331C356.383 86.5029 356.561 86.436 356.63 86.2821C356.7 86.131 356.633 85.9508 356.482 85.884C355.834 85.5876 355.05 85.6225 354.434 85.977C354.288 86.0583 354.239 86.2443 354.32 86.3867C354.376 86.4854 354.477 86.5406 354.582 86.5406Z" fill="#F9DE6B"/>
<path d="M356.662 117.578C356.662 121.993 356.433 127.483 362.098 127.483C367.764 127.483 377.183 121.993 377.183 117.578C377.183 113.165 372.59 109.587 366.921 109.587C361.256 109.587 356.662 113.165 356.662 117.578Z" fill="#FD9783"/>
<path d="M323.557 150.768C323.946 149.326 323.644 147.751 322.86 146.483C322.261 145.515 322.38 144.303 323.13 143.443C323.467 143.056 323.714 142.589 323.822 142.089C324.132 140.659 323.464 139.135 322.377 138.156C321.913 137.737 321.378 137.406 320.809 137.15C319.821 136.703 319.277 135.604 319.443 134.531C319.501 134.157 319.504 133.773 319.446 133.404C319.28 132.285 318.664 131.276 317.909 130.439C316.378 128.742 314.207 127.655 311.941 127.396C310.994 127.285 310.198 126.655 309.881 125.757C309.131 123.643 306.769 122.071 304.526 122.536C303.698 122.708 302.934 123.103 302.225 123.568C301.252 124.207 300.348 125.015 299.825 126.062C299.761 126.19 299.703 126.326 299.651 126.463C299.241 127.567 298.216 128.279 297.045 128.195C296.234 128.137 295.412 128.291 294.697 128.675C293.747 129.183 293.032 130.073 292.669 131.087C292.344 132.006 291.449 132.558 290.481 132.692C289.955 132.764 289.441 132.991 289.052 133.349C288.543 133.811 288.221 134.43 288.058 135.101C287.852 135.93 287.186 136.569 286.364 136.804C285.237 137.127 284.275 138.15 284.269 139.339C284.269 139.935 284.449 140.589 284.127 141.089C283.767 141.641 282.982 141.702 282.465 142.109C281.605 142.789 281.759 144.12 282.029 145.184C282.256 146.088 281.108 150.114 281.375 151.006C281.832 152.52 283.557 153.244 284.946 152.485C286.463 151.651 289.723 148.163 291.478 148.038C295.418 147.753 299.697 148.367 302.585 151.064C304.276 152.639 305.372 154.822 307.263 156.148C310.517 158.432 313.347 156.589 316.572 155.575C319.379 154.694 322.665 154.087 323.557 150.768Z" fill="#C65638"/>
<path d="M286.565 155.133C286.498 155.686 286.538 156.25 286.678 156.816C286.809 156.055 287.027 155.322 287.291 154.604C286.983 154.805 286.742 154.985 286.565 155.133Z" fill="#000543"/>
<path d="M324.161 198.125L302.266 202.005C302.251 201.929 302.231 201.865 302.216 201.79C301.275 196.668 299.058 184.022 298.983 184.034C295.046 184.731 287.773 179.008 286.12 169.658L282.584 151.756C282.665 151.003 287.416 147.472 298.622 146.678C303.015 146.367 307.83 147.899 309.277 148.678C312.737 150.535 314.553 168.614 313.673 169.332L318.598 168.489L324.161 198.125Z" fill="#FD9783"/>
<path d="M298.948 172.532C298.948 173.596 298.201 174.555 297.082 174.75C295.961 174.95 294.932 174.305 294.572 173.305L298.948 172.532Z" fill="white"/>
<path d="M288.258 160.844C288.38 160.824 288.488 160.74 288.534 160.618C288.607 160.432 288.514 160.223 288.328 160.15C288.261 160.127 286.66 159.522 284.807 160.716C284.638 160.827 284.592 161.051 284.699 161.216C284.807 161.385 285.033 161.434 285.199 161.327C286.73 160.345 288.014 160.807 288.07 160.827C288.131 160.85 288.197 160.856 288.258 160.844Z" fill="#C65638"/>
<path d="M300.784 158.74C300.903 158.719 301.011 158.638 301.057 158.516C301.13 158.327 301.037 158.118 300.851 158.045C300.784 158.022 299.183 157.418 297.329 158.612C297.161 158.722 297.111 158.946 297.222 159.112C297.329 159.283 297.553 159.33 297.722 159.222C299.267 158.228 300.575 158.714 300.589 158.722C300.653 158.746 300.72 158.751 300.784 158.74Z" fill="#C65638"/>
<path d="M301.147 184.525C313.484 182.01 318.772 170.675 318.295 167.978C318.243 167.681 317.961 167.483 317.668 167.536C317.371 167.588 317.174 167.87 317.226 168.166C317.56 170.047 312.9 181.022 300.961 183.455C300.342 183.545 299.691 183.583 299.049 183.56C298.75 183.545 298.5 183.783 298.489 184.083C298.477 184.382 298.712 184.632 299.012 184.644C299.715 184.67 300.435 184.629 301.147 184.525Z" fill="#FF7664"/>
<path d="M295.261 170.465C295.531 170.419 295.728 170.174 295.708 169.895C295.688 169.596 295.429 169.369 295.13 169.39C293.918 169.471 293.436 169.314 292.968 169.163L292.692 169.079C292.579 169.044 292.521 168.971 292.492 168.913C292.445 168.826 292.437 168.721 292.471 168.619C292.564 168.335 292.41 168.029 292.126 167.934C291.844 167.838 291.536 167.995 291.44 168.276C291.315 168.654 291.347 169.07 291.527 169.416C291.707 169.762 292.012 170.012 292.387 170.119L292.634 170.198C293.172 170.372 293.782 170.57 295.203 170.474C295.223 170.474 295.243 170.471 295.261 170.465Z" fill="#FF7664"/>
<path d="M298.747 161.563C298.875 162.278 299.305 162.798 299.712 162.725C300.119 162.653 300.345 162.016 300.217 161.304C300.093 160.589 299.66 160.069 299.256 160.142C298.849 160.214 298.622 160.851 298.747 161.563Z" fill="#000543"/>
<path d="M286.451 163.827C286.576 164.542 286.983 165.065 287.358 164.998C287.73 164.934 287.93 164.3 287.805 163.588C287.677 162.873 287.274 162.35 286.899 162.417C286.527 162.481 286.323 163.114 286.451 163.827Z" fill="#000543"/>
<path d="M310.634 164.327C310.727 169.05 313.063 172.23 315.849 171.433C318.638 170.634 320.82 166.161 320.727 161.438C320.634 156.715 318.298 153.535 315.512 154.331C312.723 155.128 310.541 159.604 310.634 164.327Z" fill="#FD9783"/>
<path d="M315.646 164.632C315.82 164.6 315.974 164.487 316.049 164.316C316.171 164.039 316.047 163.72 315.77 163.601C315.605 163.525 315.468 163.362 315.407 163.162C315.346 162.961 315.364 162.761 315.46 162.609C315.619 162.357 315.541 162.019 315.288 161.86C315.035 161.703 314.698 161.778 314.539 162.031C314.277 162.45 314.216 162.979 314.37 163.481C314.524 163.987 314.876 164.391 315.335 164.595C315.436 164.638 315.544 164.65 315.646 164.632Z" fill="#FF7664"/>
<path d="M304.186 165.603C304.465 167.178 305.967 168.227 307.542 167.948C309.117 167.669 310.169 166.167 309.89 164.591C309.611 163.016 308.109 161.967 306.534 162.246C304.959 162.525 303.907 164.027 304.186 165.603Z" fill="#FF7664"/>
<path d="M285.449 166.275C286.838 166.26 288.075 167.242 288.325 168.658C288.578 170.073 287.866 171.079 286.559 171.544L285.449 166.275Z" fill="#FF7664"/>
<path d="M316.262 155.502C316.601 155.444 316.883 155.191 316.93 154.866C316.988 154.459 318.287 144.821 311.688 137.764C307.6 133.395 301.403 131.023 293.265 130.712C292.829 130.701 292.442 131 292.408 131.395C292.37 131.788 292.698 132.119 293.134 132.136C300.816 132.427 306.639 134.636 310.439 138.694C316.613 145.283 315.364 154.648 315.352 154.741C315.294 155.133 315.602 155.476 316.038 155.511C316.113 155.517 316.189 155.514 316.262 155.502Z" fill="#F7EBDA"/>
<mask id="mask6_337_1978" style="mask-type:alpha" maskUnits="userSpaceOnUse" x="233" y="211" width="168" height="133">
<path d="M400.256 211.553H233.644V343.552H400.256V211.553Z" fill="black"/>
</mask>
<g mask="url(#mask6_337_1978)">
<path d="M387.492 343.551H234.185L275.37 211.826L378.314 212.712C391.298 212.823 401.319 224.176 399.826 237.078L387.492 343.551Z" fill="#CC3936"/>
</g>
<mask id="mask7_337_1978" style="mask-type:alpha" maskUnits="userSpaceOnUse" x="217" y="211" width="167" height="133">
<path d="M383.892 211.553H217.281V343.552H383.892V211.553Z" fill="black"/>
</mask>
<g mask="url(#mask7_337_1978)">
<path d="M371.059 343.551H217.751L258.939 211.826L361.88 212.712C374.865 212.823 384.886 224.176 383.393 237.078L371.059 343.551Z" fill="#F45448"/>
</g>
<path d="M284.873 197.128C284.844 197.205 284.87 197.16 284.891 197.113L284.873 197.128Z" fill="white"/>
<mask id="mask8_337_1978" style="mask-type:alpha" maskUnits="userSpaceOnUse" x="226" y="285" width="57" height="59">
<path d="M282.735 285.217H226.206V343.552H282.735V285.217Z" fill="black"/>
</mask>
<g mask="url(#mask8_337_1978)">
<path d="M262.966 343.551H229.603C225.84 335.116 225.224 323.67 227.752 317.32C228.565 315.279 231.401 302.078 237.505 285.856L282.7 302.24C277.88 314.393 272.734 327.368 268.597 334.64C267.223 337.052 265.334 340.328 262.966 343.551Z" fill="#E2E6F8"/>
</g>
<path d="M257.626 228.036C261.174 217.2 273.74 200.955 286.097 205.292C299.099 209.855 312.848 235.113 308.234 246.17C301.958 261.211 293.796 284.261 285.899 304.171L237.012 285.609C245.196 263.859 254.785 236.718 257.626 228.036Z" fill="#E2E6F8"/>
<mask id="mask9_337_1978" style="mask-type:alpha" maskUnits="userSpaceOnUse" x="262" y="301" width="129" height="43">
<path d="M390.587 301.586H262.653V343.551H390.587V301.586Z" fill="black"/>
</mask>
<g mask="url(#mask9_337_1978)">
<path d="M268.211 343.552C266.299 330.117 264.5 315.733 262.905 301.967L379.822 304.726C383.489 318.023 387.056 331.312 390.183 343.552H268.211Z" fill="#E2E6F8"/>
</g>
<path d="M260.994 284.978L375.275 288.402C376.789 293.791 378.314 299.258 379.822 304.725L262.905 301.967C262.231 296.151 261.589 290.445 260.994 284.978Z" fill="#E2E6F8"/>
<path d="M256.06 235.872C258.434 196.165 305.645 190.215 317.331 191.317C321.346 191.663 326.027 192.558 330.972 193.854C348.89 198.543 347.06 204.007 353.24 211.939C353.091 211.951 363.92 248.001 375.275 288.402L260.994 284.978C257.989 257.43 256.06 235.872 256.06 235.872Z" fill="#E2E6F8"/>
<path d="M296.739 210.256C296.71 210.333 296.733 210.289 296.757 210.245L296.739 210.256Z" fill="white"/>
<path d="M337.744 246.813C337.715 246.887 337.738 246.845 337.759 246.801L337.744 246.813Z" fill="white"/>
<path d="M330.388 253.267C323.958 239.665 319.885 205.12 332.143 197.615C343.794 190.486 374.301 223.211 378.651 237.508C382.201 249.178 391.438 276.2 394.303 299.906L341.833 306.132C339.075 286.577 336.51 266.21 330.388 253.267Z" fill="#E2E6F8"/>
<path d="M294.898 201.19C294.898 208.259 291.867 205.934 302.542 205.934C313.217 205.934 324.44 207.872 324.44 200.801C324.44 193.729 322.627 190.41 311.953 190.41C301.281 190.41 294.898 194.118 294.898 201.19Z" fill="#FB9581"/>
<mask id="mask10_337_1978" style="mask-type:alpha" maskUnits="userSpaceOnUse" x="159" y="336" width="14" height="8">
<path d="M172.652 336.559H159.264V343.552H172.652V336.559Z" fill="black"/>
</mask>
<g mask="url(#mask10_337_1978)">
<path d="M161.333 343.552C160.656 342.77 160.115 341.878 159.862 340.843C159.38 338.866 160.781 337.282 162.736 337.012C164.898 336.715 167.344 338.799 168.933 340.017C170.578 341.279 171.551 342.479 172.074 343.552H161.333Z" fill="#FB9581"/>
</g>
<path d="M314.861 270.882C315.024 270.809 315.186 270.737 315.346 270.664C326.14 265.793 335.188 256.931 337.739 246.162C340.054 236.387 336.96 226.22 337.73 216.242C338.221 209.908 341.728 203.461 349.826 204.493C355.869 205.263 360.666 211.408 364.76 215.111C376.983 226.167 386.865 240.936 395.52 254.591C406.796 272.382 412.686 290.647 408.938 310.932C406.41 324.596 401.081 333.376 384.72 335.024C377.361 335.765 356.674 335.309 349.314 334.809C329.368 333.449 299.671 329.926 284.49 323.017L314.861 270.882Z" fill="#E2E6F8"/>
<path d="M302.643 302.429V333.858H286.931L284.958 333.663L269.745 305.67C275.108 305.315 290.87 303.682 302.643 302.429Z" fill="#FB9581"/>
<path d="M275.375 305.412C275.375 305.412 250.377 299.389 230.933 330.649L284.958 333.664L275.375 305.412Z" fill="#FB9581"/>
<path d="M209.357 334.041H328V331.23C328 327.635 325.086 324.72 321.491 324.72H216.566C212.585 324.72 209.357 327.949 209.357 331.931V334.041Z" fill="#8B9CC4"/>
<path d="M322.168 187.149L328.383 192.828C328.383 192.828 332.73 211.413 308.832 216.017L304.407 205.391C304.407 205.391 315.831 203.525 322.168 187.149Z" fill="#B3C1E9"/>
<path d="M304.98 205.585L297.672 213.654C297.672 213.654 291.704 204.524 292.768 194.43L300.252 190.052C300.252 190.052 301.086 197.792 304.98 205.585Z" fill="#B3C1E9"/>
<path d="M352.507 296.326C352.699 296.326 352.891 296.27 353.062 296.151C353.495 295.846 353.6 295.244 353.292 294.811L336.309 270.713C336.001 270.277 335.403 270.175 334.97 270.48C334.534 270.786 334.432 271.387 334.738 271.82L351.72 295.919C351.909 296.186 352.205 296.326 352.507 296.326Z" fill="#B3C1E9"/>
<path d="M303.367 317.316C303.899 317.316 304.329 316.886 304.329 316.354V297.305L365.806 296.325C366.335 296.316 366.759 295.881 366.75 295.349C366.741 294.82 366.3 294.381 365.774 294.401L303.353 295.398C302.827 295.407 302.405 295.834 302.405 296.36V316.354C302.405 316.886 302.835 317.316 303.367 317.316Z" fill="#B3C1E9"/>
<path d="M296.693 303.685C296.713 303.685 296.737 303.682 296.757 303.682C297.289 303.644 297.687 303.188 297.652 302.656C296.516 285.903 302.016 217.796 306.139 206.629C306.325 206.132 306.069 205.577 305.572 205.391C305.075 205.208 304.52 205.463 304.337 205.96C300.165 217.252 294.59 285.92 295.734 302.787C295.766 303.296 296.19 303.685 296.693 303.685Z" fill="#B3C1E9"/>
<path d="M266.346 261.79H278.607C279.138 261.79 279.568 261.36 279.568 260.828C279.568 260.296 279.138 259.866 278.607 259.866H266.346C265.814 259.866 265.384 260.296 265.384 260.828C265.384 261.36 265.814 261.79 266.346 261.79Z" fill="#B3C1E9"/>
<path d="M264.669 306.209C264.721 306.209 264.776 306.206 264.832 306.194C265.355 306.104 265.706 305.607 265.616 305.084C264.233 297.024 264.024 290.165 264.916 282.142C264.974 281.616 264.593 281.14 264.065 281.082C263.542 281.032 263.062 281.401 263.004 281.933C262.103 290.034 262.324 297.274 263.722 305.41C263.8 305.878 264.207 306.209 264.669 306.209Z" fill="#B3C1E9"/>
<mask id="mask11_337_1978" style="mask-type:alpha" maskUnits="userSpaceOnUse" x="107" y="333" width="263" height="11">
<path d="M369.016 333.582H107.198V343.552H369.016V333.582Z" fill="black"/>
</mask>
<g mask="url(#mask11_337_1978)">
<path d="M107.483 343.552C109.973 337.977 115.554 334.085 122.051 334.085H364.681C366.73 334.085 368.392 336.181 368.392 338.767V343.552H107.483Z" fill="#FDC078"/>
</g>
<mask id="mask12_337_1978" style="mask-type:alpha" maskUnits="userSpaceOnUse" x="267" y="333" width="138" height="11">
<path d="M404.719 333.582H267.115V343.552H404.719V333.582Z" fill="black"/>
</mask>
<g mask="url(#mask12_337_1978)">
<path d="M267.848 343.552V334.085H395.131C395.613 334.085 396.093 334.097 396.569 334.117C402.261 334.381 404.623 339.262 403.844 343.552H267.848Z" fill="#FFE677"/>
</g>
<path d="M136.514 318.151H273.04C277.671 318.151 281.181 313.974 280.388 309.408L263.132 210.14C262.51 206.565 259.407 203.955 255.781 203.955H119.255C114.624 203.955 111.111 208.131 111.905 212.698L129.163 311.966C129.785 315.544 132.885 318.151 136.514 318.151Z" fill="#5A67A8"/>
<path d="M252.466 208.779L270.294 311.332C270.913 314.893 268.173 318.151 264.561 318.151H122.585C119.851 318.151 117.486 316.25 116.899 313.576L94.4223 211.023C93.6262 207.39 96.3893 203.955 100.105 203.955H246.733C249.56 203.955 251.981 205.989 252.466 208.779Z" fill="#2C346B"/>
<path d="M168.503 333.213L178.312 283.147C178.67 281.328 177.868 279.854 176.525 279.854C175.183 279.854 173.806 281.328 173.448 283.147L163.642 333.213H152.945L167.362 259.622C167.608 258.369 168.704 257.465 169.979 257.465H191.77C193.45 257.465 194.711 259 194.388 260.648L180.172 333.213H168.503Z" fill="#5A67A8"/>
<path d="M134.8 334.413H203.57V333.652C203.57 332.21 202.402 331.044 200.963 331.044H137.406C135.968 331.044 134.8 332.21 134.8 333.652V334.413Z" fill="#5A67A8"/>
<path d="M136.871 312.788C137.447 312.788 137.915 313.256 137.915 313.832C137.915 314.404 137.447 314.872 136.871 314.872H123.471C122.896 314.872 122.428 314.404 122.428 313.832C122.428 313.256 122.896 312.788 123.471 312.788H136.871ZM123.471 315.834H136.871C137.978 315.834 138.876 314.933 138.876 313.832C138.876 312.724 137.978 311.826 136.871 311.826H123.471C122.364 311.826 121.467 312.724 121.467 313.832C121.467 314.933 122.364 315.834 123.471 315.834Z" fill="#5A67A8"/>
<path d="M309.997 160.155C309.617 164.373 311.691 167.852 314.634 167.928C317.578 168.003 320.271 164.646 320.652 160.429C321.032 156.208 318.958 152.729 316.014 152.654C313.071 152.578 310.378 155.938 309.997 160.155Z" fill="#F8D9B5"/>
<path d="M318.781 152.819L316.015 152.653L315.988 153.455L318.781 152.819Z" fill="#F8D9B5"/>
<path d="M316.741 168.006L314.393 167.925L314.632 166.928L316.741 168.006Z" fill="#F8D9B5"/>
<path d="M312.313 160.269C311.932 164.49 314.01 167.969 316.95 168.044C319.893 168.12 323.7 164.763 324.083 160.545C324.464 156.325 321.274 152.846 318.33 152.77C315.39 152.695 312.694 156.052 312.313 160.269Z" fill="#F7EBDA"/>
<path d="M318.882 160.906C318.882 162.333 319.687 163.493 320.684 163.493C321.677 163.493 322.485 162.333 322.485 160.906C322.485 159.476 321.677 158.316 320.684 158.316C319.687 158.316 318.882 159.476 318.882 160.906Z" fill="#F8D9B5"/>
<path d="M305.218 175.557C315.3 173.909 320.84 162.475 321.07 161.989L320.201 161.577C320.149 161.69 314.643 173.043 305.064 174.61L305.218 175.557Z" fill="#F8D9B5"/>
<path d="M302.08 175.226C302.08 176.151 302.917 176.901 303.945 176.901C304.977 176.901 305.811 176.151 305.811 175.226C305.811 174.302 304.977 173.552 303.945 173.552C302.917 173.552 302.08 174.302 302.08 175.226Z" fill="#F7EBDA"/>
<mask id="mask13_337_1978" style="mask-type:alpha" maskUnits="userSpaceOnUse" x="261" y="333" width="12" height="11">
<path d="M272.322 333.582H261.909V343.552H272.322V333.582Z" fill="black"/>
</mask>
<g mask="url(#mask13_337_1978)">
<path d="M262.653 343.552C262.574 343.046 262.531 342.523 262.531 341.988C262.531 337.581 265.456 334.006 267.702 334.006C269.951 334.006 271.776 337.581 271.776 341.988C271.776 342.523 271.747 343.046 271.697 343.552H262.653Z" fill="#FFE677"/>
</g>
<path d="M280.832 85.9685H312.662C319.286 85.9685 324.708 80.5448 324.708 73.9178C324.708 67.2909 319.286 61.8701 312.662 61.8701H280.832C274.21 61.8701 268.789 67.2909 268.789 73.9178C268.789 80.5448 274.21 85.9685 280.832 85.9685Z" fill="#00A0FF"/>
<path d="M183.339 75.0659H201.69C206.263 75.0659 210.005 71.3222 210.005 66.7473C210.005 62.1724 206.263 58.4287 201.69 58.4287H183.339C178.765 58.4287 175.023 62.1724 175.023 66.7473C175.023 71.3222 178.765 75.0659 183.339 75.0659Z" fill="#00F6B6"/>
<path d="M236.004 187.245H250.034C259.509 187.245 267.261 179.491 267.261 170.015C267.261 160.537 259.509 152.782 250.034 152.782H236.004C226.529 152.782 218.777 160.537 218.777 170.012C218.777 179.491 226.529 187.245 236.004 187.245Z" fill="white"/>
<path d="M260.837 180.978L264.759 191.331L253.34 184.905L260.837 180.978Z" fill="white"/>
<path d="M247.925 170.343C247.925 172.017 249.282 173.374 250.955 173.374C252.629 173.374 253.986 172.017 253.986 170.343C253.986 168.668 252.629 167.311 250.955 167.311C249.282 167.311 247.925 168.668 247.925 170.343Z" fill="#252525"/>
<path d="M239.272 170.343C239.272 172.017 240.629 173.374 242.305 173.374C243.979 173.374 245.336 172.017 245.336 170.343C245.336 168.668 243.979 167.311 242.305 167.311C240.629 167.311 239.272 168.668 239.272 170.343Z" fill="#252525"/>
<path d="M231.174 170.343C231.174 172.017 232.531 173.374 234.205 173.374C235.881 173.374 237.235 172.017 237.235 170.343C237.235 168.668 235.881 167.311 234.205 167.311C232.531 167.311 231.174 168.668 231.174 170.343Z" fill="#252525"/>
<path d="M194.929 66.6892C194.929 67.721 195.766 68.5581 196.797 68.5581C197.829 68.5581 198.665 67.721 198.665 66.6892C198.665 65.6545 197.829 64.8174 196.797 64.8174C195.766 64.8174 194.929 65.6545 194.929 66.6892Z" fill="#171717"/>
<path d="M189.833 66.6892C189.833 67.721 190.669 68.5581 191.701 68.5581C192.732 68.5581 193.569 67.721 193.569 66.6892C193.569 65.6545 192.732 64.8174 191.701 64.8174C190.669 64.8174 189.833 65.6545 189.833 66.6892Z" fill="#171717"/>
<path d="M184.6 66.6892C184.6 67.721 185.436 68.5581 186.468 68.5581C187.499 68.5581 188.336 67.721 188.336 66.6892C188.336 65.6545 187.499 64.8174 186.468 64.8174C185.436 64.8174 184.6 65.6545 184.6 66.6892Z" fill="#171717"/>
<path d="M301.894 73.7517C301.894 75.3648 303.201 76.6728 304.814 76.6728C306.427 76.6728 307.734 75.3648 307.734 73.7517C307.734 72.1385 306.427 70.8306 304.814 70.8306C303.201 70.8306 301.894 72.1385 301.894 73.7517Z" fill="#171717"/>
<path d="M293.57 73.7517C293.57 75.3648 294.877 76.6728 296.49 76.6728C298.102 76.6728 299.41 75.3648 299.41 73.7517C299.41 72.1385 298.102 70.8306 296.49 70.8306C294.877 70.8306 293.57 72.1385 293.57 73.7517Z" fill="#171717"/>
<path d="M285.577 73.7517C285.577 75.3648 286.881 76.6728 288.494 76.6728C290.106 76.6728 291.414 75.3648 291.414 73.7517C291.414 72.1385 290.106 70.8306 288.494 70.8306C286.881 70.8306 285.577 72.1385 285.577 73.7517Z" fill="#171717"/>
<path d="M182.237 74.1502L176.822 78.17L177.958 72.229L182.237 74.1502Z" fill="#00F6B6"/>
<path d="M315.695 85.0062L321.111 89.0289L319.975 83.085L315.695 85.0062Z" fill="#00A0FF"/>
<defs>
<linearGradient id="paint0_linear_337_1978" x1="214.884" y1="83.1627" x2="181.646" y2="146.355" gradientUnits="userSpaceOnUse">
<stop offset="0.191401" stop-color="#00F6B6"/>
<stop offset="1" stop-color="#00A0FF"/>
</linearGradient>
<linearGradient id="paint1_linear_337_1978" x1="437.794" y1="95.2027" x2="402.889" y2="164.775" gradientUnits="userSpaceOnUse">
<stop offset="0.191401" stop-color="#00F6B6"/>
<stop offset="1" stop-color="#00A0FF"/>
</linearGradient>
</defs>
</svg>
