<svg width="733" height="478" viewBox="0 0 733 478" fill="none" xmlns="http://www.w3.org/2000/svg">
<mask id="mask0_254_914" style="mask-type:alpha" maskUnits="userSpaceOnUse" x="0" y="0" width="733" height="478">
<path d="M733 0H0V477.473H733V0Z" fill="black"/>
</mask>
<g mask="url(#mask0_254_914)">
<path d="M121.346 477.066C98.9171 477.066 77.737 466.604 64.2126 448.707C40.4561 417.269 22.1085 381.784 10.7659 344.021C2.46387 316.391 -2.28137 287.274 1.11053 258.62C4.49817 229.967 16.5825 201.734 37.9186 182.315C62.6121 159.846 96.7526 151.206 129.783 146.352C162.813 141.494 196.776 139.504 227.823 127.233C286.033 104.218 319.219 74.7055 373.447 43.445C444.721 2.35581 529.489 -18.217 601.873 20.8857C667.113 56.1279 715.637 106.387 728.068 179.513C743.354 269.425 721.848 360.014 680.937 441.459C669.993 463.251 647.759 477.066 623.374 477.066H121.346Z" fill="#252525"/>
</g>
<path opacity="0.2" d="M346.302 111.63L99.702 112.649L100.283 253.119C100.301 257.179 104.07 260.458 108.702 260.437L339.02 259.483C343.379 259.47 346.897 255.917 346.879 251.558L346.302 111.63Z" fill="#00A0FF"/>
<path opacity="0.2" d="M346.25 99.6892C346.233 95.33 342.685 91.8123 338.326 91.8297L108.008 92.7796C103.376 92.8013 99.637 96.64 99.6544 101.359L99.7065 113.175L346.302 112.151L346.25 99.6892Z" fill="url(#paint0_linear_254_914)"/>
<mask id="mask1_254_914" style="mask-type:alpha" maskUnits="userSpaceOnUse" x="20" y="240" width="117" height="238">
<path d="M136.714 240.958H20.1218V477.916H136.714V240.958Z" fill="black"/>
</mask>
<g mask="url(#mask1_254_914)">
<path d="M21.3014 248.995C22.208 246.046 23.956 243.322 26.3763 241.574C28.1894 243.86 29.9504 246.224 31.1259 249.195C31.2864 250.041 32.8522 250.886 33.0084 251.737C37.9141 264.441 40.3474 276.018 41.0154 288.722C41.3234 294.934 43.0454 301.145 46.6889 307.074C47.0749 307.638 47.9728 307.92 48.0248 308.202C49.4475 311.308 52.5879 313.004 54.4183 315.264C55.1947 316.391 56.1967 317.237 57.203 318.087C64.5507 325.708 71.0483 333.334 73.9111 342.651C77.2119 352.813 73.5077 363.258 81.1157 372.293C89.5001 382.46 102.847 388.954 104.981 401.94C107.219 415.495 100.912 430.177 112.485 442.318C116.714 446.833 123.346 449.093 127.345 453.89C133.652 461.143 134.606 469.423 135.695 477.773H132.047C121.268 477.773 111.478 471.015 108.138 460.77C107.444 458.644 106.555 456.567 105.332 454.571C101.524 448.33 95.1258 443.901 89.9468 438.57C83.1239 431.544 78.3267 422.695 76.5049 413.769C75.182 407.267 75.3208 400.548 72.0937 394.389C69.2699 389.001 64.2731 384.833 60.3173 380.044C55.108 373.733 51.6683 366.16 50.61 358.678C49.3738 349.942 51.2346 341.172 47.6127 332.67C44.6242 325.665 38.3565 319.996 34.8431 313.147C28.5841 300.946 32.1278 287.408 26.9142 274.899C25.5392 271.602 23.5873 268.466 22.2687 265.152C20.1173 259.744 19.7703 253.953 21.3014 248.995Z" fill="#7AB756"/>
</g>
<mask id="mask2_254_914" style="mask-type:alpha" maskUnits="userSpaceOnUse" x="25" y="238" width="119" height="240">
<path d="M143.376 238.736H25.6736V477.915H143.376V238.736Z" fill="black"/>
</mask>
<g mask="url(#mask2_254_914)">
<path d="M32.358 239.59C38.0401 239.543 43.6225 243.863 47.8559 248.443C60.2569 261.868 66.5636 279.304 68.9536 295.974C69.9859 303.182 70.476 310.699 74.4448 317.379C78.2271 323.751 84.5946 328.37 90.4589 333.116C98.9648 339.991 107.202 348.084 111.084 357.848C115.339 368.531 113.795 379.718 117.447 390.514C122.986 406.884 139.711 420.378 142.535 436.93C144.769 450.051 137.525 461.779 140.136 474.9C140.327 475.863 140.583 476.822 140.865 477.772H135.695C134.606 469.422 133.652 461.142 127.345 453.889C123.346 449.092 116.714 446.832 112.485 442.317C100.912 430.176 107.219 415.494 104.981 401.939C102.847 388.952 89.5003 382.459 81.1159 372.292C73.5079 363.257 77.2122 352.812 73.9113 342.649C71.0486 333.332 64.551 325.707 57.2032 318.086C56.1969 317.236 55.195 316.39 54.4186 315.262C52.5881 313.003 49.4478 311.307 48.0251 308.201C47.973 307.919 47.0752 307.637 46.6891 307.073C43.0456 301.144 41.3236 294.933 41.0157 288.721C40.3477 276.017 37.9143 264.44 33.0086 251.735C32.8525 250.885 31.2866 250.039 31.1261 249.193C29.9507 246.222 28.1896 243.858 26.3766 241.572C28.0595 240.358 30.0721 239.612 32.358 239.59Z" fill="#679E44"/>
</g>
<mask id="mask3_254_914" style="mask-type:alpha" maskUnits="userSpaceOnUse" x="60" y="168" width="116" height="310">
<path d="M175.578 168.781H60.0962V477.915H175.578V168.781Z" fill="black"/>
</mask>
<g mask="url(#mask3_254_914)">
<path d="M63.5185 178.25C65.1754 174.732 67.8907 171.627 71.3173 169.835C73.3039 172.958 75.2037 176.168 76.2534 180.042C76.3185 181.117 78.2226 182.41 78.292 183.486C82.6035 200.025 83.8918 214.768 82.699 230.643C82.096 238.398 83.3236 246.375 87.0972 254.304C87.5092 255.063 88.6283 255.553 88.6544 255.913C90.0033 259.991 93.803 262.584 95.8199 265.673C96.6397 267.2 97.8108 268.405 98.9776 269.616C107.288 280.225 114.497 290.7 116.705 302.711C119.347 315.84 112.845 328.228 121.268 340.629C130.511 354.557 146.803 364.702 147.471 381.155C148.178 398.322 137.612 415.555 150.681 432.433C155.443 438.705 163.693 442.543 168.109 449.123C174.619 458.384 175.01 468.022 175.084 477.773H144.283C144.235 477.465 144.183 477.161 144.14 476.849C142.734 466.682 144.027 456.306 139.408 446.521C135.465 438.18 127.87 431.687 122.005 424.256C114.28 414.471 109.483 402.742 108.564 391.374C107.896 383.098 109.162 374.783 105.965 366.633C103.168 359.51 97.3511 353.555 92.9919 346.992C87.2447 338.343 84.0002 328.41 83.8397 318.955C83.6489 307.92 87.4876 297.328 84.1563 286.211C81.4107 277.05 74.1801 269.034 70.7231 259.986C64.5725 243.868 71.365 227.62 66.6198 211.28C65.3663 206.973 63.3363 202.774 62.1608 198.459C60.2437 191.406 60.7295 184.167 63.5185 178.25Z" fill="#7AB756"/>
</g>
<mask id="mask4_254_914" style="mask-type:alpha" maskUnits="userSpaceOnUse" x="71" y="167" width="121" height="311">
<path d="M191.124 167.671H71.2003V477.916H191.124V167.671Z" fill="black"/>
</mask>
<g mask="url(#mask4_254_914)">
<path d="M181.33 477.2C181.343 477.391 181.369 477.582 181.386 477.772H175.084C175.01 468.022 174.619 458.384 168.109 449.123C163.693 442.543 155.443 438.704 150.681 432.432C137.612 415.555 148.178 398.322 147.471 381.154C146.803 364.702 130.511 354.557 121.268 340.629C112.845 328.228 119.347 315.84 116.705 302.711C114.497 290.7 107.288 280.225 98.9776 269.615C97.8108 268.405 96.6397 267.199 95.8199 265.673C93.803 262.584 90.0033 259.99 88.6543 255.913C88.6283 255.553 87.5092 255.063 87.0972 254.304C83.3235 246.375 82.096 238.398 82.6989 230.643C83.8917 214.768 82.6035 200.024 78.292 183.485C78.2226 182.41 76.3185 181.117 76.2534 180.042C75.2037 176.168 73.3039 172.958 71.3173 169.835C73.7029 168.59 76.4356 167.983 79.4068 168.317C86.7979 169.146 93.3475 175.379 98.1058 181.724C112.047 200.328 117.416 222.952 117.82 244.015C117.998 253.12 117.412 262.524 121.485 271.437C125.371 279.934 132.897 286.666 139.746 293.472C149.687 303.335 159.074 314.669 162.539 327.391C166.335 341.319 162.522 354.956 165.519 368.927C170.061 390.107 189.61 409.47 190.59 430.455C191.371 447.089 180.063 460.509 181.33 477.2Z" fill="#679E44"/>
</g>
<mask id="mask5_254_914" style="mask-type:alpha" maskUnits="userSpaceOnUse" x="96" y="447" width="100" height="31">
<path d="M195.565 447.492H96.7394V477.915H195.565V447.492Z" fill="black"/>
</mask>
<g mask="url(#mask5_254_914)">
<path d="M127.874 477.915H164.591C181.247 477.915 194.75 464.417 194.75 447.761H97.7197C97.7197 464.417 111.218 477.915 127.874 477.915Z" fill="white"/>
</g>
<path d="M171.709 259.935L176.151 259.917L175.63 133.852C175.608 129.124 171.757 125.294 167.037 125.294C167.003 125.294 99.5935 125.576 99.5935 125.576L99.6152 130.017L167.02 129.736C169.319 129.736 171.175 131.588 171.188 133.869L171.709 259.935Z" fill="#78C8F4"/>
<path d="M137.625 102.86C137.625 105.324 139.625 107.319 142.088 107.319C144.552 107.319 146.547 105.324 146.547 102.86C146.547 100.397 144.552 98.397 142.088 98.397C139.625 98.397 137.625 100.397 137.625 102.86Z" fill="#F9EDDC"/>
<path d="M106.377 102.86C106.377 105.324 108.377 107.319 110.836 107.319C113.3 107.319 115.3 105.324 115.3 102.86C115.3 100.397 113.3 98.397 110.836 98.397C108.377 98.397 106.377 100.397 106.377 102.86Z" fill="#F73B0F"/>
<path d="M121.676 102.86C121.676 105.324 123.671 107.319 126.135 107.319C128.598 107.319 130.594 105.324 130.594 102.86C130.594 100.397 128.598 98.397 126.135 98.397C123.671 98.397 121.676 100.397 121.676 102.86Z" fill="#66A1D3"/>
<path d="M303.916 173.535H278.021C275.87 173.535 274.855 171.644 275.748 169.31L298.811 109.041C299.7 106.707 302.168 104.816 304.32 104.816H330.215C332.362 104.816 333.381 106.707 332.487 109.041L309.425 169.31C308.531 171.644 306.068 173.535 303.916 173.535Z" fill="white"/>
<path d="M290.214 183.781L258.069 206.652L257.869 206.423L249.246 211.094C249.246 211.094 250.287 214.686 252.669 219.799L296.065 196.737C293.905 191.892 291.849 187.411 290.214 183.781Z" fill="#F7E059"/>
<path d="M260.472 259.817C259.526 258.967 258.633 257.93 257.791 256.651V216.728L295.332 196.732C301.734 222.089 299.08 241.209 296.204 259.817H260.472Z" fill="#FD9783"/>
<path d="M279.531 157.261C274.43 145.463 269.125 141.32 258.485 144.47C241.374 149.54 239.001 166.795 240.242 175.886C240.806 180.002 243.534 187.151 247.082 195.145L287.286 175.648C285.716 172.277 280.849 160.314 279.531 157.261Z" fill="#FF723B"/>
<path d="M177.682 124.582C177.703 124.643 177.686 124.608 177.668 124.573L177.682 124.582Z" fill="white"/>
<path d="M264.224 260.025H155.248C147.467 202.891 159.325 155.834 164.925 139.377C166.886 133.617 171.024 129.093 176.623 126.72C184.518 123.381 195.257 121.685 204.973 120.774C213.31 120.513 226.01 119.073 234.989 121.338C234.989 121.338 264.818 129.041 280.398 157.512C280.398 157.512 257.331 199.907 264.224 260.025Z" fill="#FF723B"/>
<path d="M236.641 127.423C236.641 131.7 231.389 138.085 223.191 138.085C214.993 138.085 206.955 131.7 206.955 127.423C206.955 123.142 213.601 119.672 221.798 119.672C229.996 119.672 236.641 123.142 236.641 127.423Z" fill="#FD9783"/>
<path d="M222.662 151.908C231.48 151.908 240.051 143.945 248.149 128.221C248.57 127.406 248.249 126.399 247.429 125.979C246.613 125.558 245.607 125.879 245.186 126.699C237.492 141.641 229.667 148.976 222.015 148.56C208.378 147.783 198.775 122.834 198.68 122.582C198.35 121.724 197.387 121.294 196.528 121.615C195.669 121.94 195.236 122.903 195.561 123.762C195.982 124.873 206.032 150.98 221.825 151.882C222.102 151.9 222.384 151.908 222.662 151.908Z" fill="#F7E059"/>
<path d="M219.773 80.1534C219.756 81.8016 220.406 83.3761 221.048 84.8986C222.072 87.3233 223.1 89.7479 224.123 92.1726C224.258 92.4936 224.401 92.8232 224.653 93.0661C225.347 93.7168 226.526 93.3784 227.22 92.7278C229.589 90.52 228.578 86.0914 231.055 84.0007C231.567 83.5713 232.183 83.285 232.742 82.9164C234.343 81.8667 235.444 80.0883 235.674 78.1841C235.761 77.4337 235.718 76.6487 235.444 75.9416C235.11 75.0872 234.464 74.3888 233.735 73.8336C228.374 69.7347 219.851 73.144 219.773 80.1534Z" fill="#23273F"/>
<path d="M249.259 73.4431C248.088 72.2893 246.587 71.3307 246.067 69.7475C245.659 68.52 245.933 67.145 245.599 65.8915C245.234 64.5208 244.093 63.4104 242.744 63.1068C241.847 62.9029 240.858 63.0244 240.042 62.5863C239.11 62.0875 238.658 61.0074 237.986 60.179C236.299 58.1013 232.881 57.8584 230.877 59.6715C230.122 60.3481 229.519 61.285 228.569 61.593C228.075 61.7535 227.546 61.7188 227.03 61.7231C225.668 61.7318 224.271 62.0311 223.113 62.7858C221.95 63.5449 221.053 64.7984 220.905 66.1951C220.788 67.3402 221.157 68.4636 221.361 69.5913C221.56 70.7191 221.556 72.003 220.823 72.8792C220.489 73.2739 220.038 73.5515 219.738 73.9722C219.27 74.6359 219.274 75.5511 219.552 76.3058C219.825 77.0649 220.333 77.7025 220.836 78.3228C221.135 78.7001 221.456 79.0905 221.894 79.2857C222.922 79.7411 224.093 78.9474 224.804 78.0365C225.512 77.1256 226.075 76.0152 227.086 75.4817C228.001 75.0002 229.112 75.1087 230.057 75.4904C231.003 75.8721 231.831 76.4967 232.69 77.0562C233.874 77.8283 235.18 78.5006 236.59 78.6047C237.999 78.7131 239.535 78.1536 240.302 76.9217C240.558 76.5097 240.736 76.0282 241.096 75.7116C241.677 75.1911 242.588 75.2735 243.261 75.6422C244.254 76.1844 244.896 77.221 245.377 78.2664C245.863 79.3117 246.245 80.4264 246.921 81.346C248.379 83.3326 251.814 83.3629 252.356 80.5089C252.82 78.0842 250.838 74.9959 249.259 73.4431Z" fill="#23273F"/>
<path d="M247.607 86.8237C247.637 87.2965 247.576 87.7779 247.429 88.2507C247.355 87.5958 247.208 86.9625 247.021 86.3379C247.273 86.5244 247.468 86.6892 247.607 86.8237Z" fill="#000543"/>
<path d="M213.427 121.437L231.849 125.862C231.866 125.796 231.888 125.744 231.905 125.679C232.968 121.377 235.501 110.737 235.561 110.754C238.88 111.548 245.356 107.058 247.242 99.1945L251.168 84.1564C251.137 83.5144 247.26 83.9395 247.134 83.3322C246.201 82.5255 242.315 79.654 237.791 79.0164C234.078 78.4959 229.901 79.5846 228.626 80.1702C225.59 81.5712 223.117 96.8436 223.829 97.5029L219.686 96.5313L213.427 121.437Z" fill="#FD9783"/>
<path d="M236.186 100.977C236.13 101.884 236.715 102.734 237.656 102.959C238.602 103.185 239.509 102.69 239.869 101.858L236.186 100.977Z" fill="white"/>
<path d="M245.876 91.5955C245.772 91.5695 245.685 91.4914 245.65 91.3873C245.603 91.2225 245.689 91.0533 245.85 91.0012C245.911 90.9839 247.303 90.5545 248.817 91.6649C248.956 91.7646 248.982 91.9555 248.886 92.0943C248.782 92.2331 248.591 92.2591 248.452 92.1594C247.199 91.2485 246.084 91.5738 246.036 91.5868C245.984 91.6042 245.928 91.6042 245.876 91.5955Z" fill="#23273F"/>
<path d="M235.332 89.1619C235.232 89.1359 235.145 89.0621 235.11 88.9537C235.058 88.7932 235.149 88.6197 235.314 88.5676C235.371 88.5503 236.763 88.1209 238.277 89.2313C238.416 89.331 238.446 89.5219 238.342 89.6607C238.246 89.7995 238.051 89.8255 237.912 89.7301C236.646 88.8019 235.514 89.1489 235.501 89.1532C235.444 89.1749 235.388 89.1749 235.332 89.1619Z" fill="#23273F"/>
<path d="M233.696 111.062C223.338 108.29 219.422 98.3792 219.968 96.1107C220.025 95.8634 220.276 95.7073 220.528 95.768C220.775 95.8287 220.927 96.0803 220.866 96.3275C220.484 97.9107 223.885 107.475 233.909 110.16C234.434 110.268 234.989 110.333 235.531 110.346C235.787 110.351 235.987 110.563 235.982 110.819C235.978 111.075 235.765 111.279 235.509 111.27C234.906 111.257 234.299 111.188 233.696 111.062Z" fill="#FF7664"/>
<path d="M239.426 99.4116C239.201 99.3595 239.044 99.1383 239.075 98.9041C239.11 98.6525 239.339 98.4703 239.595 98.505C240.619 98.6351 241.04 98.5267 241.443 98.4226L241.682 98.3662C241.781 98.3402 241.833 98.2838 241.86 98.2361C241.907 98.1624 241.916 98.0756 241.894 97.9889C241.829 97.7373 241.977 97.4857 242.224 97.4206C242.467 97.3556 242.723 97.5031 242.788 97.7503C242.874 98.0756 242.827 98.4269 242.653 98.7132C242.484 98.9952 242.211 99.1903 241.89 99.2641L241.673 99.3205C241.209 99.4419 240.68 99.5764 239.474 99.4202C239.457 99.4202 239.444 99.4159 239.426 99.4116Z" fill="#FF7664"/>
<path d="M236.919 91.6645C236.776 92.2675 236.381 92.6839 236.039 92.6014C235.7 92.519 235.54 91.9682 235.683 91.3696C235.826 90.7667 236.221 90.3503 236.563 90.4283C236.902 90.5108 237.062 91.066 236.919 91.6645Z" fill="#000543"/>
<path d="M247.26 94.2236C247.117 94.8222 246.744 95.2473 246.431 95.1735C246.115 95.0955 245.976 94.5489 246.119 93.946C246.267 93.3475 246.635 92.9224 246.952 93.0005C247.264 93.0742 247.403 93.6207 247.26 94.2236Z" fill="#000543"/>
<path d="M226.67 93.4002C226.349 97.4124 224.197 99.9975 221.868 99.1734C219.539 98.3536 217.912 94.4369 218.233 90.429C218.559 86.4168 220.71 83.836 223.035 84.6558C225.368 85.4756 226.995 89.3923 226.67 93.4002Z" fill="#FD9783"/>
<path d="M222.393 93.4037C222.245 93.369 222.12 93.2649 222.063 93.1131C221.976 92.8745 222.098 92.6056 222.336 92.5188C222.484 92.4668 222.61 92.3323 222.67 92.1675C222.735 91.9983 222.727 91.8248 222.653 91.6947C222.532 91.4691 222.614 91.1872 222.84 91.0658C223.065 90.9443 223.347 91.0267 223.469 91.2523C223.668 91.621 223.694 92.0721 223.538 92.4928C223.377 92.9135 223.061 93.2388 222.657 93.3863C222.571 93.421 222.475 93.4254 222.393 93.4037Z" fill="#FF7664"/>
<path d="M252.061 83.1414C250.313 80.5172 251.762 75.4553 249.346 74.2105C245.807 72.3844 237.344 72.753 233.406 73.1044C231.788 73.2432 229.671 78.5306 228.149 78.9687C227.368 79.1942 226.604 79.4632 225.867 79.7711L224.457 85.6528C224.965 86.3945 225.42 87.1666 225.806 87.969C226.231 86.2167 226.565 84.434 227.606 82.9419C228.617 81.4975 230.512 80.682 232.46 80.4695C234.49 80.2439 236.589 80.6039 238.615 81.0681C239.535 81.2806 240.445 81.5322 241.309 81.9052C244.028 83.0893 246.154 84.7159 248.864 85.9217C250.626 86.6895 253.076 84.6638 252.061 83.1414Z" fill="#23273F"/>
<path d="M232.087 94.8177C231.771 96.145 230.435 96.9604 229.112 96.6394C227.789 96.3228 226.973 94.9912 227.29 93.6682C227.607 92.341 228.942 91.5255 230.265 91.8421C231.588 92.1631 232.404 93.4947 232.087 94.8177Z" fill="#FF7664"/>
<path d="M247.989 96.3532C246.804 96.2708 245.703 97.0428 245.416 98.2313C245.13 99.4198 245.685 100.313 246.774 100.773L247.989 96.3532Z" fill="#FF7664"/>
<path d="M224.887 89.2264C224.692 89.9031 224.405 90.5971 224.57 91.2781C224.735 91.9591 225.646 92.4796 226.149 91.9938C226.309 91.8376 226.388 91.6164 226.44 91.3952C226.639 90.5277 226.461 89.6255 226.414 88.7363C226.275 86.1902 227.285 83.6094 229.111 81.831C229.541 81.4189 230.04 80.9895 230.1 80.3953C230.157 79.814 229.732 79.2588 229.19 79.0333C228.647 78.8121 228.023 78.8728 227.468 79.0637C226.405 79.4193 225.507 80.2391 225.047 81.2584C223.937 83.7178 225.624 86.6239 224.887 89.2264Z" fill="#23273F"/>
<path d="M297.848 152.411L211.115 180.752L211.042 176.536L160.844 183.919C162.605 195.929 166.894 208.43 175.409 219.998C181.191 227.858 190.916 231.814 200.523 230.105C223.59 225.997 270.214 213.835 305.833 179.564L297.848 152.411Z" fill="#F99783"/>
<path d="M278.824 165.229L282.823 145.541C283.179 143.793 285.378 143.003 286.839 144.135C288.505 145.428 289.854 147.992 288.397 153.075L278.824 165.229Z" fill="#FD9783"/>
<path d="M315.428 134.571C316.4 133.183 316.022 131.296 314.591 130.381C313.16 129.466 311.195 129.856 310.223 131.244L300.008 145.848C299.826 146.104 299.488 146.208 299.171 146.113C298.69 145.966 298.481 145.445 298.75 145.063L306.519 133.959C307.49 132.571 307.113 130.685 305.682 129.769C304.25 128.858 302.281 129.244 301.309 130.632L288.657 148.72C285.976 150.273 283.478 152.246 282.077 154.198C279.071 158.397 278.06 168.746 278.902 173.344C280.498 182.062 280.364 178.31 285.59 183.598C292.136 190.221 301.951 186.2 307.972 177.287C311.633 171.856 313.194 168.764 315.771 162.782C315.936 162.4 316.044 162.014 316.113 161.633L323.5 151.075C324.476 149.687 324.099 147.8 322.667 146.885C321.236 145.97 319.267 146.36 318.295 147.748L314.001 153.886C313.645 154.398 312.899 154.484 312.413 154.072C312.001 153.721 311.919 153.157 312.21 152.741L319.453 142.387C320.425 140.995 320.052 139.108 318.616 138.197C317.189 137.282 315.22 137.672 314.248 139.06L307.1 149.275C306.861 149.622 306.371 149.709 305.998 149.483C305.608 149.24 305.5 148.763 305.747 148.408L315.428 134.571Z" fill="#FD9783"/>
<path d="M328.406 114.12C328.527 114.12 328.744 114.146 328.844 114.298C328.939 114.441 328.926 114.693 328.801 114.97C328.497 115.66 327.634 116.267 326.961 116.267H318.204C318.083 116.267 317.866 116.246 317.766 116.094C317.671 115.946 317.688 115.695 317.809 115.417C318.113 114.727 318.976 114.12 319.648 114.12H328.406ZM318.204 117.378H326.961C328.076 117.378 329.33 116.519 329.816 115.417C330.097 114.792 330.08 114.159 329.776 113.691C329.495 113.257 328.996 113.01 328.406 113.01H319.648C318.534 113.01 317.28 113.873 316.794 114.97C316.512 115.599 316.53 116.228 316.833 116.697C317.115 117.13 317.614 117.378 318.204 117.378Z" fill="white"/>
<path d="M159.139 174.19L160.844 183.919L211.042 176.537L210.352 167.415L159.139 174.19Z" fill="#F7E059"/>
<path opacity="0.2" d="M339.467 259.24L319.943 259.318L319.557 166.23C319.523 157.668 326.432 150.702 334.99 150.663L346.485 150.62L346.905 251.74C346.923 255.865 343.591 259.222 339.467 259.24Z" fill="#78C8F4"/>
<path opacity="0.2" d="M682.438 132.446H403.315V291.446C403.315 296.039 407.566 299.765 412.81 299.765H673.503C678.439 299.765 682.438 295.766 682.438 290.83V132.446Z" fill="#00A0FF"/>
<path opacity="0.2" d="M682.438 118.93C682.438 113.994 678.439 109.995 673.502 109.995H412.81C407.565 109.995 403.315 114.324 403.315 119.663V133.036H682.438V118.93Z" fill="url(#paint1_linear_254_914)"/>
<path d="M639.657 121.94C639.657 124.729 637.397 126.989 634.608 126.989C631.819 126.989 629.559 124.729 629.559 121.94C629.559 119.151 631.819 116.891 634.608 116.891C637.397 116.891 639.657 119.151 639.657 121.94Z" fill="#F9EDDC"/>
<path d="M657.71 121.94C657.71 124.729 655.45 126.989 652.661 126.989C649.876 126.989 647.612 124.729 647.612 121.94C647.612 119.151 649.876 116.891 652.661 116.891C655.45 116.891 657.71 119.151 657.71 121.94Z" fill="#66A1D3"/>
<path d="M511.791 135.07L526.6 118.679C527.914 117.226 527.185 114.758 525.233 114.198C523.012 113.56 519.868 114.033 516.324 118.644L511.791 135.07Z" fill="#FD9783"/>
<path d="M515.14 82.5683C515.738 80.7986 517.647 79.9051 519.382 80.5774C521.121 81.254 522.054 83.2536 521.455 85.0233L515.179 103.618C515.066 103.944 515.201 104.312 515.487 104.529C515.929 104.863 516.523 104.711 516.688 104.221L521.46 90.0852C522.058 88.3155 523.971 87.4176 525.706 88.0943C527.441 88.7709 528.378 90.7705 527.779 92.5402L520.002 115.568C520.375 118.964 520.245 122.469 519.43 124.985C517.673 130.389 509.076 137.841 504.565 140.292C500.865 142.3 499.23 142.226 491.166 141.034C481.064 139.541 478.249 128.199 482.222 117.043C484.643 110.246 486.369 106.845 489.982 100.66C490.216 100.261 490.481 99.914 490.776 99.6017L495.313 86.1597C495.912 84.3857 497.82 83.4922 499.559 84.1688C501.294 84.8411 502.227 86.8451 501.633 88.6148L498.991 96.431C498.774 97.0773 499.178 97.7973 499.854 97.9578C500.436 98.0966 500.987 97.8016 501.169 97.2724L505.619 84.0864C506.218 82.3167 508.126 81.4189 509.865 82.0998C511.6 82.7722 512.533 84.7717 511.934 86.5414L507.545 99.5496C507.393 99.9921 507.636 100.482 508.078 100.664C508.547 100.855 509.037 100.643 509.189 100.192L515.14 82.5683Z" fill="#FD9783"/>
<path d="M493.253 112.736L505.853 126.998C506.903 128.182 508.707 128.295 509.887 127.245L540.363 100.179C541.542 99.1339 541.651 97.3208 540.605 96.1367L528.005 81.875C526.96 80.6908 525.155 80.5824 523.975 81.6321L493.5 108.694C492.316 109.743 492.208 111.552 493.253 112.736Z" fill="#5A67A8"/>
<path d="M413.347 179.737C425.262 161.606 444.261 137.42 482.205 117L505.671 139.416L462.738 188.503L466.738 190.316L442.799 231.991C423.055 226.075 419.246 223.403 411.699 210.477C406.572 201.698 407.769 188.217 413.347 179.737Z" fill="white"/>
<path d="M524.244 79.4981C525.598 76.4619 528.283 74.0849 531.401 72.9962C533.318 72.3282 535.079 71.2742 536.493 69.8038C539.23 66.9627 542.848 64.9718 546.721 64.2431C550.547 63.5274 554.581 64.0523 558.125 65.6658C560.068 66.5507 562.232 66.915 564.345 66.6374C568.374 66.1082 572.582 66.9063 576.104 68.945C579.448 70.8752 582.141 73.8941 583.755 77.4074C584.787 79.6673 586.583 81.4717 588.708 82.7469C591.419 84.3778 593.627 86.8675 594.98 89.7433C596.442 92.8533 599.071 95.2823 602.385 96.1411C604.679 96.7354 606.835 98.0366 608.44 99.802C610.63 102.209 611.892 105.328 612.378 108.572C612.712 110.776 613.753 112.78 615.128 114.528C617.661 117.755 618.772 122.131 617.887 126.161C617.254 129.041 615.627 131.652 613.415 133.583C610.6 136.046 608.973 139.56 609.09 143.307C609.19 146.409 608.301 149.549 606.457 152.047C604.488 154.711 601.508 156.541 598.29 157.257C595.479 157.886 592.99 159.378 591.064 161.529C589.966 162.731 588.479 163.407 586.991 163.906C579.344 166.461 570.474 164.622 564.28 159.49C562.397 157.929 560.055 157.096 557.626 156.858C553.778 156.476 550.053 154.628 547.181 151.978C543.351 148.447 540.892 143.628 539.304 138.653C538.992 137.668 538.814 136.484 538.896 135.413C539.053 133.465 538.805 131.501 537.899 129.77C537.487 128.985 537.226 128.109 537.153 127.232C536.958 124.955 537.803 122.695 539.001 120.757C539.352 120.188 539.734 119.642 540.141 119.121C542.592 115.981 543.503 111.873 542.232 108.091C541.334 105.406 541.221 102.457 542.05 99.7456C542.696 101.398 541.286 103.216 539.651 103.888C537.322 104.847 534.433 104.209 532.715 102.357C531.002 100.505 530.577 97.5638 531.696 95.2953C531.913 97.0477 529.211 97.8631 527.849 96.7484C526.292 95.4688 524.999 91.1053 524.171 89.1447C522.9 86.1172 522.908 82.4997 524.244 79.4981Z" fill="#F9DE6B"/>
<path d="M558.428 118.813C553.323 117.828 548.222 120.322 543.841 123.137C538.176 126.781 532.937 131.092 528.27 135.955C526.391 137.906 524.565 140.019 523.628 142.569C522.696 145.115 522.813 148.212 524.557 150.29C526.669 152.793 530.347 153.105 533.613 153.157C540.87 153.274 548.135 153.066 555.37 152.533C563.143 151.956 574.278 148.694 574.638 138.999C574.946 130.728 566.336 120.335 558.428 118.813Z" fill="white"/>
<path d="M554.173 137.902C554.147 137.971 554.169 137.933 554.186 137.894L554.173 137.902Z" fill="white"/>
<path d="M611.814 299.848H503.993C499.746 299.214 496.593 295.801 496.393 291.355C494.884 257.232 490.113 208.14 489.479 185.493C488.998 168.373 514.637 126.876 563.139 134.038C579.274 135.53 604.545 147.25 610.283 155.998C610.136 156.007 604.805 215.991 604.805 215.991C604.805 215.991 610.587 269.533 611.814 299.848Z" fill="white"/>
<path d="M554.976 162.205C555.097 162.205 555.223 162.184 555.344 162.14C559.174 160.791 563.204 159.208 566.73 156.796C569.502 154.905 573.154 151.639 574.841 146.846C576.281 142.76 576.16 137.841 574.477 132.229C574.299 131.639 573.679 131.309 573.093 131.478C572.508 131.656 572.174 132.281 572.347 132.871C573.891 138.024 574.026 142.474 572.751 146.104C571.263 150.325 567.975 153.244 565.481 154.953C562.167 157.217 558.298 158.735 554.611 160.037C554.03 160.24 553.726 160.878 553.93 161.459C554.091 161.919 554.52 162.205 554.976 162.205Z" fill="#F7EBDA"/>
<path d="M530.503 160.041C530.803 160.041 531.098 159.924 531.314 159.686C531.735 159.234 531.709 158.532 531.262 158.111C525.884 153.08 524.453 144.075 528.001 137.612C528.296 137.07 528.1 136.393 527.563 136.094C527.029 135.799 526.352 135.994 526.057 136.536C521.972 143.975 523.559 153.951 529.749 159.742C529.961 159.941 530.234 160.041 530.503 160.041Z" fill="#F7EBDA"/>
<path d="M559.808 188.343C559.86 188.343 559.916 188.339 559.972 188.335C560.58 188.239 560.996 187.671 560.905 187.064C560.718 185.828 560.324 184.648 559.938 183.507C559.343 181.742 558.784 180.076 559.092 178.471C559.335 177.231 560.081 176.112 560.875 174.927C561.321 174.26 561.786 173.566 562.172 172.824C564.496 168.387 563.629 162.587 560.111 159.035C559.677 158.597 558.975 158.592 558.541 159.031C558.107 159.464 558.103 160.171 558.537 160.609C561.343 163.442 562.063 168.248 560.211 171.783C559.877 172.42 559.465 173.032 559.031 173.678C558.151 174.997 557.24 176.359 556.914 178.042C556.489 180.228 557.175 182.258 557.834 184.223C558.207 185.32 558.554 186.357 558.71 187.398C558.793 187.949 559.265 188.343 559.808 188.343Z" fill="#F7EBDA"/>
<path d="M525.849 182.175C526.292 182.175 526.712 181.902 526.882 181.464C528.096 178.328 528.395 174.784 527.736 171.488C527.554 170.603 527.311 169.74 527.077 168.903C526.704 167.584 526.352 166.339 526.257 165.068C526.023 161.976 527.372 159.135 528.543 157.295C528.877 156.779 528.725 156.085 528.209 155.756C527.693 155.417 527.003 155.573 526.673 156.09C525.32 158.215 523.759 161.529 524.041 165.237C524.153 166.734 524.552 168.144 524.938 169.51C525.173 170.343 525.394 171.132 525.559 171.93C526.136 174.815 525.875 177.912 524.813 180.653C524.591 181.23 524.873 181.876 525.446 182.097C525.576 182.149 525.715 182.175 525.849 182.175Z" fill="#F7EBDA"/>
<path d="M560.124 192.165H560.298C561.699 192.165 562.844 191.016 562.844 189.602V187.134C562.844 185.724 561.699 184.575 560.298 184.575H560.124C558.719 184.575 557.578 185.724 557.578 187.134V189.602C557.578 191.016 558.719 192.165 560.124 192.165Z" fill="#F7EBDA"/>
<path d="M525.884 188.339H526.014C527.22 188.339 528.2 187.35 528.2 186.14V182.948C528.2 181.737 527.22 180.749 526.014 180.749H525.884C524.678 180.749 523.694 181.737 523.694 182.948V186.14C523.694 187.35 524.678 188.339 525.884 188.339Z" fill="#F7EBDA"/>
<path d="M600.402 286.25C600.923 286.25 601.391 285.877 601.491 285.339C601.604 284.736 601.209 284.15 600.606 284.038C599.669 283.855 577.604 279.34 572.981 252.2C572.89 251.662 572.43 251.272 571.888 251.272H501.533C501.104 251.272 500.709 251.524 500.527 251.914C500.297 252.413 494.867 264.254 495.608 280.346C495.639 280.962 496.172 281.457 496.771 281.409C497.382 281.383 497.855 280.858 497.829 280.242C497.204 266.787 501.165 256.16 502.262 253.506H570.959C576.203 281.396 599.951 286.185 600.194 286.228C600.264 286.241 600.333 286.25 600.402 286.25Z" fill="#F7EBDA"/>
<path d="M605.655 297.618C606.271 297.618 606.765 297.124 606.765 296.508V290.271C606.765 289.655 606.271 289.16 605.655 289.16C605.043 289.16 604.545 289.655 604.545 290.271V296.508C604.545 297.124 605.043 297.618 605.655 297.618Z" fill="#F7EBDA"/>
<path d="M599.17 297.618C599.786 297.618 600.281 297.124 600.281 296.508V290.271C600.281 289.655 599.786 289.16 599.17 289.16C598.559 289.16 598.06 289.655 598.06 290.271V296.508C598.06 297.124 598.559 297.618 599.17 297.618Z" fill="#F7EBDA"/>
<path d="M592.686 297.618C593.302 297.618 593.796 297.124 593.796 296.508V290.271C593.796 289.655 593.302 289.16 592.686 289.16C592.074 289.16 591.576 289.655 591.576 290.271V296.508C591.576 297.124 592.074 297.618 592.686 297.618Z" fill="#F7EBDA"/>
<path d="M586.201 297.618C586.817 297.618 587.312 297.124 587.312 296.508V290.271C587.312 289.655 586.817 289.16 586.201 289.16C585.59 289.16 585.091 289.655 585.091 290.271V296.508C585.091 297.124 585.59 297.618 586.201 297.618Z" fill="#F7EBDA"/>
<path d="M579.717 297.618C580.333 297.618 580.827 297.124 580.827 296.508V290.271C580.827 289.655 580.333 289.16 579.717 289.16C579.105 289.16 578.606 289.655 578.606 290.271V296.508C578.606 297.124 579.105 297.618 579.717 297.618Z" fill="#F7EBDA"/>
<path d="M573.232 297.618C573.848 297.618 574.343 297.124 574.343 296.508V290.271C574.343 289.655 573.848 289.16 573.232 289.16C572.621 289.16 572.122 289.655 572.122 290.271V296.508C572.122 297.124 572.621 297.618 573.232 297.618Z" fill="#F7EBDA"/>
<path d="M566.748 297.618C567.359 297.618 567.858 297.124 567.858 296.508V290.271C567.858 289.655 567.359 289.16 566.748 289.16C566.136 289.16 565.637 289.655 565.637 290.271V296.508C565.637 297.124 566.136 297.618 566.748 297.618Z" fill="#F7EBDA"/>
<path d="M560.263 297.618C560.875 297.618 561.373 297.124 561.373 296.508V290.271C561.373 289.655 560.875 289.16 560.263 289.16C559.651 289.16 559.153 289.655 559.153 290.271V296.508C559.153 297.124 559.651 297.618 560.263 297.618Z" fill="#F7EBDA"/>
<path d="M553.779 297.618C554.39 297.618 554.889 297.124 554.889 296.508V290.271C554.889 289.655 554.39 289.16 553.779 289.16C553.167 289.16 552.668 289.655 552.668 290.271V296.508C552.668 297.124 553.167 297.618 553.779 297.618Z" fill="#F7EBDA"/>
<path d="M547.294 297.618C547.905 297.618 548.404 297.124 548.404 296.508V290.271C548.404 289.655 547.905 289.16 547.294 289.16C546.678 289.16 546.183 289.655 546.183 290.271V296.508C546.183 297.124 546.678 297.618 547.294 297.618Z" fill="#F7EBDA"/>
<path d="M540.809 297.618C541.421 297.618 541.92 297.124 541.92 296.508V290.271C541.92 289.655 541.421 289.16 540.809 289.16C540.193 289.16 539.699 289.655 539.699 290.271V296.508C539.699 297.124 540.193 297.618 540.809 297.618Z" fill="#F7EBDA"/>
<path d="M534.325 297.618C534.936 297.618 535.435 297.124 535.435 296.508V290.271C535.435 289.655 534.936 289.16 534.325 289.16C533.709 289.16 533.214 289.655 533.214 290.271V296.508C533.214 297.124 533.709 297.618 534.325 297.618Z" fill="#F7EBDA"/>
<path d="M527.84 297.618C528.452 297.618 528.951 297.124 528.951 296.508V290.271C528.951 289.655 528.452 289.16 527.84 289.16C527.224 289.16 526.73 289.655 526.73 290.271V296.508C526.73 297.124 527.224 297.618 527.84 297.618Z" fill="#F7EBDA"/>
<path d="M521.356 297.618C521.967 297.618 522.466 297.124 522.466 296.508V290.271C522.466 289.655 521.967 289.16 521.356 289.16C520.74 289.16 520.245 289.655 520.245 290.271V296.508C520.245 297.124 520.74 297.618 521.356 297.618Z" fill="#F7EBDA"/>
<path d="M514.871 297.618C515.483 297.618 515.981 297.124 515.981 296.508V290.271C515.981 289.655 515.483 289.16 514.871 289.16C514.255 289.16 513.761 289.655 513.761 290.271V296.508C513.761 297.124 514.255 297.618 514.871 297.618Z" fill="#F7EBDA"/>
<path d="M508.387 297.618C508.998 297.618 509.497 297.124 509.497 296.508V290.271C509.497 289.655 508.998 289.16 508.387 289.16C507.771 289.16 507.276 289.655 507.276 290.271V296.508C507.276 297.124 507.771 297.618 508.387 297.618Z" fill="#F7EBDA"/>
<path d="M501.898 297.618C502.513 297.618 503.008 297.124 503.008 296.508V290.271C503.008 289.655 502.513 289.16 501.898 289.16C501.286 289.16 500.787 289.655 500.787 290.271V296.508C500.787 297.124 501.286 297.618 501.898 297.618Z" fill="#F7EBDA"/>
<path d="M506.079 154.581L434.614 214.13L502.01 218.802L506.079 154.581Z" fill="#F9EDDC"/>
<path d="M506.417 213.788C506.417 213.788 457.247 246.406 423.172 224.523L422.556 193.284L513.934 146.148L506.417 213.788Z" fill="white"/>
<path d="M450.897 181.143C451.079 181.143 451.266 181.099 451.439 181.004L518.38 143.684C518.918 143.389 519.113 142.708 518.814 142.17C518.514 141.632 517.838 141.433 517.304 141.737L450.359 179.052C449.826 179.351 449.631 180.032 449.925 180.57C450.129 180.939 450.511 181.143 450.897 181.143Z" fill="#F7EBDA"/>
<path d="M619.257 165.498C611.814 154.997 590.43 140.791 580.072 147.102C569.172 153.739 566.96 185.619 575.579 198.09C583.117 208.994 594.599 224.54 604.527 239.448L647.256 211.306C637.753 194.481 626.258 175.366 619.257 165.498Z" fill="white"/>
<path d="M606.648 153.526C624.055 167.18 644.172 194.125 652.275 211.089L632.526 225.476L606.648 153.526Z" fill="white"/>
<path d="M620.468 299.847C619.969 289.086 619.474 278.507 618.932 270.404C618.342 261.599 616.989 257.834 612.465 250.27C608.7 243.98 604.788 238.337 601.491 234.121L643.925 205.307C645.734 208.014 647.443 210.716 649.048 213.44L652.275 211.089C667.174 242.289 668.935 275.926 667.525 299.847H620.468Z" fill="white"/>
<path d="M619.132 299.848L616.048 247.568C616.013 246.952 616.477 246.427 617.093 246.388C617.709 246.349 618.23 246.822 618.264 247.438L621.357 299.848H619.132Z" fill="#F7EBDA"/>
<path d="M617.479 259.539C617.696 259.539 617.917 259.474 618.108 259.344C618.615 258.993 618.741 258.299 618.394 257.791L585.182 209.294C584.835 208.786 584.145 208.656 583.638 209.007C583.13 209.354 583.005 210.053 583.352 210.56L616.564 259.058C616.781 259.37 617.128 259.539 617.479 259.539Z" fill="#F7EBDA"/>
<path d="M531.852 88.1429C531.662 88.6634 531.575 89.2229 531.579 89.8042C531.878 89.0972 532.26 88.4335 532.677 87.7959C532.33 87.9217 532.056 88.0388 531.852 88.1429Z" fill="#000543"/>
<path d="M556.936 136.861C556.858 138.9 553.648 139.967 551.623 139.854L538.736 139.698C538.276 139.13 538.914 135.092 538.923 134.636C538.923 134.636 539.391 119.416 539.244 119.412C534.685 119.264 528.803 113.899 528.248 102.526L528.764 83.9481C529.016 83.2367 533.21 85.0151 533.557 84.3731C534.867 83.7832 540.18 81.8617 545.455 82.6685C549.784 83.3278 554.095 85.9563 555.318 87.045C558.251 89.6389 555.904 107.644 554.889 108.143L557.769 108.203L556.936 136.861Z" fill="#FD9783"/>
<path d="M539.898 107.896C539.66 108.932 538.719 109.696 537.587 109.631C536.459 109.57 535.609 108.707 535.483 107.653L539.898 107.896Z" fill="white"/>
<path d="M539.009 119.863C551.224 120.223 557.604 109.509 557.752 106.824C557.765 106.625 557.613 106.456 557.413 106.447C557.214 106.434 557.045 106.586 557.032 106.79C556.893 109.332 550.768 119.486 539.04 119.143C538.844 119.134 538.675 119.295 538.671 119.49C538.667 119.689 538.818 119.854 539.009 119.863Z" fill="#FF7664"/>
<path d="M536.797 105.046C537.07 105.064 537.313 104.868 537.361 104.595C537.409 104.3 537.209 104.018 536.914 103.971C535.721 103.771 535.288 103.511 534.871 103.255L534.624 103.112C534.52 103.051 534.481 102.969 534.463 102.904C534.442 102.808 534.459 102.704 534.511 102.613C534.667 102.357 534.589 102.023 534.338 101.867C534.082 101.711 533.748 101.793 533.592 102.045C533.383 102.383 533.323 102.795 533.418 103.172C533.514 103.55 533.752 103.862 534.09 104.057L534.312 104.187C534.793 104.478 535.34 104.812 536.741 105.042C536.758 105.046 536.78 105.046 536.797 105.046Z" fill="#FF7664"/>
<path d="M553.08 102.578C552.1 107.193 553.64 110.824 556.52 110.685C559.404 110.546 562.532 106.69 563.516 102.07C564.496 97.4553 562.957 93.8248 560.077 93.968C557.192 94.1068 554.065 97.9628 553.08 102.578Z" fill="#FD9783"/>
<path d="M557.869 104.022C558.042 104.031 558.22 103.953 558.329 103.805C558.511 103.567 558.463 103.224 558.224 103.046C558.077 102.933 557.986 102.742 557.969 102.534C557.956 102.326 558.021 102.135 558.146 102.009C558.359 101.797 558.359 101.454 558.151 101.242C557.943 101.029 557.596 101.025 557.387 101.237C557.036 101.584 556.858 102.083 556.893 102.608C556.928 103.137 557.175 103.61 557.574 103.909C557.665 103.979 557.765 104.013 557.869 104.022Z" fill="#FF7664"/>
<path d="M554.572 84.1178C554.572 84.1178 540.115 91.3571 528.764 83.9486C528.764 83.9486 543.815 72.4672 554.572 84.1178Z" fill="#F9DE6B"/>
<path d="M554.689 97.9192C554.65 98.392 554.598 98.8822 554.746 99.3289C554.897 99.7757 555.318 100.175 555.787 100.123C556.268 100.066 556.58 99.5892 556.802 99.1554C559.053 94.7138 559.556 89.1965 557.274 84.7766C556.81 83.8744 556.225 83.0112 555.392 82.4387C554.563 81.8661 553.457 81.6232 552.525 82.0093C549.263 83.3626 552.59 87.0928 553.336 88.971C554.459 91.799 554.941 94.883 554.689 97.9192Z" fill="#F9DE6B"/>
<path d="M545.637 102.934C545.637 104.434 546.847 105.653 548.339 105.653C549.836 105.653 551.046 104.434 551.046 102.934C551.046 101.433 549.836 100.218 548.339 100.218C546.847 100.218 545.637 101.433 545.637 102.934Z" fill="#FF7664"/>
<path d="M528.322 98.9258C529.48 99.0342 530.395 100.001 530.395 101.194C530.395 102.391 529.48 103.363 528.313 103.467C528.257 102.821 528.23 102.175 528.213 101.528C528.287 100.661 528.361 99.7933 528.322 98.9258Z" fill="#FF7664"/>
<path d="M542.7 96.9824C542.7 97.62 543.021 98.1362 543.42 98.1362C543.815 98.1362 544.136 97.62 544.136 96.9824C544.136 96.3448 543.815 95.8286 543.42 95.8286C543.021 95.8286 542.7 96.3448 542.7 96.9824Z" fill="#000543"/>
<path d="M529.866 96.6919C529.866 97.3338 530.191 97.85 530.586 97.85C530.981 97.85 531.306 97.3338 531.306 96.6919C531.306 96.0586 530.981 95.5381 530.586 95.5381C530.191 95.5381 529.866 96.0586 529.866 96.6919Z" fill="#000543"/>
<path d="M545.121 94.5965C545.251 94.5965 545.385 94.5401 545.472 94.423C545.628 94.2278 545.594 93.9459 545.398 93.7941C544.492 93.0784 543.199 92.9569 542.176 93.4948C541.959 93.6075 541.872 93.8808 541.989 94.102C542.102 94.3232 542.371 94.41 542.592 94.2929C543.295 93.9242 544.219 94.0109 544.843 94.5011C544.926 94.5661 545.021 94.5965 545.121 94.5965Z" fill="#F9DE6B"/>
<path d="M529.345 94.3754C529.419 94.3754 529.497 94.3581 529.567 94.3147C530.243 93.9287 531.102 93.894 531.809 94.2149C532.035 94.319 532.299 94.2193 532.403 93.9894C532.507 93.7638 532.408 93.4949 532.182 93.3951C531.215 92.9527 530.044 93.0048 529.124 93.5339C528.907 93.6554 528.833 93.933 528.955 94.1455C529.037 94.293 529.189 94.3754 529.345 94.3754Z" fill="#F9DE6B"/>
<path d="M532.451 140.691C532.451 147.28 532.108 155.474 540.566 155.474C549.024 155.474 563.087 147.28 563.087 140.691C563.087 134.107 556.229 128.768 547.767 128.768C539.308 128.768 532.451 134.107 532.451 140.691Z" fill="#FD9783"/>
<path d="M483.029 190.221C483.611 188.07 483.16 185.719 481.988 183.828C481.095 182.383 481.273 180.575 482.392 179.291C482.895 178.714 483.264 178.016 483.424 177.27C483.888 175.135 482.891 172.863 481.268 171.401C480.574 170.776 479.776 170.282 478.926 169.9C477.451 169.232 476.64 167.593 476.888 165.992C476.974 165.432 476.979 164.86 476.892 164.309C476.645 162.639 475.725 161.134 474.597 159.885C472.311 157.352 469.071 155.729 465.688 155.343C464.274 155.179 463.086 154.237 462.613 152.897C461.494 149.744 457.967 147.397 454.619 148.091C453.383 148.347 452.242 148.937 451.183 149.631C449.73 150.585 448.381 151.791 447.601 153.352C447.505 153.543 447.418 153.747 447.34 153.951C446.729 155.599 445.198 156.662 443.45 156.536C442.24 156.449 441.012 156.679 439.945 157.252C438.527 158.011 437.46 159.338 436.917 160.852C436.432 162.223 435.096 163.047 433.651 163.246C432.866 163.355 432.098 163.693 431.517 164.227C430.758 164.916 430.277 165.84 430.034 166.842C429.726 168.078 428.732 169.033 427.505 169.384C425.822 169.865 424.386 171.392 424.378 173.166C424.378 174.055 424.647 175.031 424.165 175.777C423.627 176.602 422.456 176.693 421.684 177.3C420.4 178.315 420.63 180.301 421.033 181.889C421.372 183.238 419.658 189.245 420.057 190.577C420.738 192.837 423.315 193.917 425.388 192.785C427.652 191.54 432.519 186.335 435.139 186.148C441.021 185.723 447.41 186.639 451.721 190.664C454.246 193.015 455.881 196.272 458.705 198.25C463.563 201.659 467.787 198.909 472.602 197.396C476.792 196.081 481.698 195.175 483.029 190.221Z" fill="#C65638"/>
<path d="M427.804 196.737C427.704 197.561 427.765 198.402 427.973 199.248C428.169 198.112 428.494 197.019 428.889 195.947C428.429 196.247 428.069 196.515 427.804 196.737Z" fill="#000543"/>
<path d="M483.932 260.892L451.244 266.683C451.222 266.57 451.192 266.475 451.17 266.362C449.765 258.719 446.456 239.847 446.343 239.864C440.465 240.905 429.609 232.365 427.141 218.411L421.862 191.696C421.983 190.573 429.075 185.303 445.805 184.118C452.363 183.654 459.55 185.94 461.711 187.103C466.876 189.874 469.587 216.854 468.273 217.925L475.625 216.667L483.932 260.892Z" fill="#FD9783"/>
<path d="M446.291 222.701C446.291 224.288 445.176 225.72 443.506 226.01C441.832 226.309 440.296 225.347 439.758 223.854L446.291 222.701Z" fill="white"/>
<path d="M430.333 205.259C430.515 205.229 430.676 205.103 430.745 204.921C430.854 204.643 430.715 204.331 430.437 204.223C430.337 204.188 427.947 203.286 425.18 205.068C424.928 205.233 424.859 205.567 425.02 205.815C425.18 206.066 425.518 206.14 425.766 205.979C428.051 204.513 429.969 205.203 430.051 205.233C430.142 205.268 430.242 205.277 430.333 205.259Z" fill="#C65638"/>
<path d="M449.032 202.12C449.21 202.089 449.37 201.968 449.44 201.786C449.548 201.504 449.409 201.191 449.132 201.083C449.032 201.048 446.642 200.146 443.875 201.929C443.623 202.094 443.549 202.428 443.714 202.675C443.875 202.931 444.209 203 444.46 202.84C446.768 201.356 448.72 202.081 448.741 202.094C448.837 202.128 448.936 202.137 449.032 202.12Z" fill="#C65638"/>
<path d="M449.574 240.598C467.991 236.846 475.885 219.929 475.174 215.904C475.096 215.462 474.675 215.167 474.237 215.245C473.795 215.323 473.5 215.744 473.578 216.186C474.077 218.993 467.119 235.371 449.296 239.001C448.373 239.136 447.401 239.192 446.442 239.158C445.996 239.136 445.623 239.492 445.605 239.938C445.588 240.385 445.939 240.758 446.386 240.776C447.436 240.815 448.511 240.754 449.574 240.598Z" fill="#FF7664"/>
<path d="M440.786 219.616C441.19 219.547 441.485 219.183 441.454 218.766C441.424 218.32 441.038 217.981 440.591 218.012C438.782 218.133 438.062 217.899 437.364 217.673L436.952 217.547C436.783 217.495 436.696 217.387 436.653 217.3C436.583 217.17 436.57 217.014 436.622 216.862C436.761 216.437 436.531 215.982 436.106 215.839C435.685 215.695 435.226 215.93 435.082 216.35C434.896 216.914 434.944 217.534 435.213 218.051C435.482 218.567 435.937 218.94 436.497 219.1L436.865 219.217C437.668 219.478 438.579 219.773 440.7 219.629C440.73 219.629 440.76 219.625 440.786 219.616Z" fill="#FF7664"/>
<path d="M445.991 206.331C446.182 207.398 446.824 208.175 447.431 208.066C448.039 207.958 448.377 207.008 448.186 205.945C448 204.878 447.353 204.102 446.75 204.21C446.143 204.319 445.805 205.269 445.991 206.331Z" fill="#000543"/>
<path d="M427.635 209.71C427.822 210.777 428.429 211.558 428.988 211.458C429.544 211.363 429.843 210.417 429.656 209.354C429.465 208.287 428.863 207.506 428.303 207.606C427.748 207.702 427.444 208.647 427.635 209.71Z" fill="#000543"/>
<path d="M463.736 210.456C463.875 217.505 467.362 222.25 471.522 221.062C475.686 219.869 478.943 213.193 478.805 206.145C478.666 199.097 475.179 194.351 471.019 195.54C466.855 196.728 463.597 203.408 463.736 210.456Z" fill="#FD9783"/>
<path d="M471.218 210.912C471.479 210.864 471.708 210.695 471.821 210.439C472.003 210.027 471.817 209.55 471.405 209.372C471.158 209.259 470.954 209.016 470.863 208.717C470.772 208.418 470.798 208.118 470.941 207.893C471.179 207.516 471.062 207.012 470.685 206.774C470.307 206.54 469.804 206.652 469.566 207.03C469.175 207.654 469.084 208.444 469.314 209.194C469.544 209.949 470.069 210.552 470.754 210.855C470.906 210.92 471.066 210.938 471.218 210.912Z" fill="#FF7664"/>
<path d="M454.111 212.36C454.528 214.711 456.77 216.277 459.121 215.86C461.472 215.444 463.042 213.202 462.626 210.851C462.209 208.5 459.967 206.934 457.616 207.35C455.265 207.767 453.695 210.009 454.111 212.36Z" fill="#FF7664"/>
<path d="M426.139 213.362C428.212 213.34 430.06 214.806 430.433 216.919C430.81 219.031 429.747 220.532 427.795 221.226L426.139 213.362Z" fill="#FF7664"/>
<path d="M472.138 197.287C472.645 197.2 473.066 196.823 473.136 196.337C473.222 195.73 475.161 181.347 465.311 170.815C459.208 164.296 449.956 160.757 437.807 160.292C437.156 160.275 436.579 160.722 436.527 161.312C436.471 161.897 436.961 162.392 437.611 162.418C449.08 162.852 457.772 166.148 463.446 172.203C472.663 182.036 470.798 196.012 470.78 196.151C470.694 196.736 471.153 197.248 471.804 197.3C471.917 197.309 472.03 197.304 472.138 197.287Z" fill="#F7EBDA"/>
<mask id="mask6_254_914" style="mask-type:alpha" maskUnits="userSpaceOnUse" x="348" y="280" width="250" height="198">
<path d="M597.531 280.932H348.801V477.915H597.531V280.932Z" fill="black"/>
</mask>
<g mask="url(#mask6_254_914)">
<path d="M578.476 477.915H349.608L411.092 281.339L564.774 282.662C584.158 282.827 599.118 299.769 596.889 319.024L578.476 477.915Z" fill="#CC3936"/>
</g>
<mask id="mask7_254_914" style="mask-type:alpha" maskUnits="userSpaceOnUse" x="324" y="280" width="250" height="198">
<path d="M573.102 280.932H324.372V477.915H573.102V280.932Z" fill="black"/>
</mask>
<g mask="url(#mask7_254_914)">
<path d="M553.943 477.915H325.075L386.563 281.339L540.241 282.662C559.625 282.827 574.585 299.769 572.356 319.024L553.943 477.915Z" fill="#F45448"/>
</g>
<path d="M425.279 259.405C425.235 259.52 425.275 259.454 425.306 259.383L425.279 259.405Z" fill="white"/>
<mask id="mask8_254_914" style="mask-type:alpha" maskUnits="userSpaceOnUse" x="337" y="390" width="86" height="88">
<path d="M422.087 390.862H337.697V477.916H422.087V390.862Z" fill="black"/>
</mask>
<g mask="url(#mask8_254_914)">
<path d="M392.575 477.916H342.767C337.15 465.329 336.23 448.247 340.004 438.77C341.219 435.725 345.452 416.024 354.565 391.816L422.035 416.267C414.839 434.402 407.157 453.765 400.981 464.617C398.929 468.217 396.11 473.106 392.575 477.916Z" fill="#E2E6F8"/>
</g>
<path d="M384.603 305.53C389.899 289.36 408.658 265.117 427.106 271.589C446.516 278.399 467.041 316.092 460.153 332.592C450.784 355.038 438.6 389.435 426.811 419.147L353.828 391.447C366.047 358.99 380.361 318.486 384.603 305.53Z" fill="#E2E6F8"/>
<mask id="mask9_254_914" style="mask-type:alpha" maskUnits="userSpaceOnUse" x="392" y="415" width="192" height="63">
<path d="M583.096 415.291H392.107V477.915H583.096V415.291Z" fill="black"/>
</mask>
<g mask="url(#mask9_254_914)">
<path d="M400.404 477.916C397.55 457.868 394.865 436.401 392.484 415.859L567.025 419.975C572.499 439.819 577.826 459.65 582.493 477.916H400.404Z" fill="#E2E6F8"/>
</g>
<path d="M389.63 390.506L560.237 395.615C562.497 403.657 564.774 411.816 567.025 419.975L392.484 415.859C391.478 407.179 390.519 398.665 389.63 390.506Z" fill="#E2E6F8"/>
<path d="M382.265 317.224C385.808 257.969 456.289 249.09 473.734 250.734C479.729 251.25 486.716 252.586 494.099 254.521C520.848 261.517 518.115 269.672 527.341 281.509C527.12 281.526 543.286 335.324 560.237 395.616L389.63 390.506C385.145 349.395 382.265 317.224 382.265 317.224Z" fill="#E2E6F8"/>
<path d="M442.994 278.998C442.95 279.111 442.985 279.046 443.02 278.98L442.994 278.998Z" fill="white"/>
<path d="M504.209 333.55C504.165 333.66 504.2 333.598 504.231 333.533L504.209 333.55Z" fill="white"/>
<path d="M493.227 343.184C483.628 322.884 477.547 271.333 495.847 260.134C513.24 249.494 558.784 298.33 565.277 319.666C570.578 337.081 584.367 377.407 588.643 412.784L510.312 422.074C506.196 392.892 502.366 362.499 493.227 343.184Z" fill="#E2E6F8"/>
<path d="M440.244 265.468C440.244 276.017 435.72 272.547 451.656 272.547C467.592 272.547 484.348 275.44 484.348 264.887C484.348 254.334 481.641 249.38 465.705 249.38C449.774 249.38 440.244 254.915 440.244 265.468Z" fill="#FB9581"/>
<mask id="mask10_254_914" style="mask-type:alpha" maskUnits="userSpaceOnUse" x="237" y="467" width="21" height="11">
<path d="M257.748 467.479H237.761V477.916H257.748V467.479Z" fill="black"/>
</mask>
<g mask="url(#mask10_254_914)">
<path d="M240.849 477.916C239.838 476.749 239.031 475.417 238.654 473.873C237.934 470.924 240.025 468.56 242.944 468.156C246.171 467.714 249.823 470.824 252.196 472.641C254.651 474.524 256.104 476.315 256.885 477.916H240.849Z" fill="#FB9581"/>
</g>
<path d="M470.047 369.47C470.29 369.361 470.533 369.253 470.771 369.144C486.885 361.875 500.392 348.65 504.201 332.579C507.658 317.992 503.038 302.82 504.188 287.929C504.921 278.477 510.156 268.857 522.245 270.397C531.267 271.546 538.428 280.716 544.54 286.242C562.787 302.741 577.539 324.78 590.461 345.158C607.295 371.708 616.087 398.965 610.491 429.236C606.718 449.627 598.763 462.73 574.338 465.19C563.351 466.296 532.468 465.615 521.481 464.869C491.704 462.839 447.371 457.582 424.707 447.272L470.047 369.47Z" fill="#E2E6F8"/>
<path d="M451.808 416.548V463.45H428.351L425.406 463.159L402.694 421.385C410.701 420.855 434.232 418.418 451.808 416.548Z" fill="#FB9581"/>
<path d="M411.1 420.999C411.1 420.999 373.78 412.012 344.754 458.662L425.405 463.16L411.1 420.999Z" fill="#FB9581"/>
<path d="M312.544 463.723H489.661V459.529C489.661 454.163 485.311 449.812 479.945 449.812H323.305C317.363 449.812 312.544 454.631 312.544 460.574V463.723Z" fill="#8B9CC4"/>
<path d="M480.956 244.514L490.234 252.989C490.234 252.989 496.723 280.723 461.047 287.594L454.441 271.736C454.441 271.736 471.496 268.951 480.956 244.514Z" fill="#B3C1E9"/>
<path d="M455.295 272.027L444.387 284.068C444.387 284.068 435.477 270.444 437.065 255.379L448.238 248.847C448.238 248.847 449.483 260.398 455.295 272.027Z" fill="#B3C1E9"/>
<path d="M526.248 407.44C526.535 407.44 526.821 407.357 527.077 407.179C527.723 406.724 527.879 405.826 527.419 405.18L502.067 369.218C501.607 368.567 500.713 368.415 500.067 368.871C499.417 369.326 499.265 370.224 499.72 370.87L525.073 406.832C525.355 407.232 525.797 407.44 526.248 407.44Z" fill="#B3C1E9"/>
<path d="M452.888 438.765C453.682 438.765 454.324 438.123 454.324 437.33V408.902L546.101 407.44C546.891 407.427 547.524 406.776 547.511 405.982C547.498 405.193 546.839 404.538 546.053 404.568L452.866 406.056C452.081 406.069 451.452 406.707 451.452 407.492V437.33C451.452 438.123 452.094 438.765 452.888 438.765Z" fill="#B3C1E9"/>
<path d="M442.925 418.422C442.955 418.422 442.99 418.418 443.02 418.418C443.814 418.362 444.408 417.681 444.356 416.887C442.66 391.885 450.871 290.249 457.026 273.584C457.304 272.842 456.922 272.014 456.18 271.736C455.438 271.463 454.61 271.845 454.337 272.586C448.108 289.438 439.784 391.911 441.493 417.082C441.541 417.841 442.174 418.422 442.925 418.422Z" fill="#B3C1E9"/>
<path d="M397.62 355.901H415.924C416.718 355.901 417.36 355.259 417.36 354.466C417.36 353.672 416.718 353.03 415.924 353.03H397.62C396.826 353.03 396.184 353.672 396.184 354.466C396.184 355.259 396.826 355.901 397.62 355.901Z" fill="#B3C1E9"/>
<path d="M395.117 422.187C395.195 422.187 395.277 422.183 395.36 422.166C396.14 422.031 396.665 421.29 396.531 420.509C394.466 408.481 394.154 398.244 395.485 386.273C395.572 385.488 395.004 384.776 394.215 384.69C393.434 384.616 392.718 385.167 392.631 385.961C391.287 398.049 391.616 408.854 393.703 420.995C393.82 421.693 394.427 422.187 395.117 422.187Z" fill="#B3C1E9"/>
<mask id="mask11_254_914" style="mask-type:alpha" maskUnits="userSpaceOnUse" x="160" y="463" width="391" height="15">
<path d="M550.894 463.038H160.033V477.915H550.894V463.038Z" fill="black"/>
</mask>
<g mask="url(#mask11_254_914)">
<path d="M160.458 477.916C164.175 469.596 172.507 463.789 182.206 463.789H544.423C547.48 463.789 549.962 466.916 549.962 470.776V477.916H160.458Z" fill="#FDC078"/>
</g>
<mask id="mask12_254_914" style="mask-type:alpha" maskUnits="userSpaceOnUse" x="398" y="463" width="207" height="15">
<path d="M604.193 463.038H398.769V477.915H604.193V463.038Z" fill="black"/>
</mask>
<g mask="url(#mask12_254_914)">
<path d="M399.862 477.916V463.789H589.88C590.6 463.789 591.315 463.806 592.027 463.836C600.524 464.231 604.05 471.514 602.888 477.916H399.862Z" fill="#FFE677"/>
</g>
<path d="M203.798 440.01H407.613C414.527 440.01 419.767 433.777 418.583 426.962L392.822 278.823C391.894 273.488 387.262 269.593 381.848 269.593H178.033C171.119 269.593 165.875 275.826 167.059 282.64L192.824 430.779C193.752 436.119 198.38 440.01 203.798 440.01Z" fill="#5A67A8"/>
<path d="M376.899 276.794L403.514 429.834C404.438 435.147 400.348 440.01 394.956 440.01H183.004C178.922 440.01 175.392 437.173 174.515 433.182L140.96 280.142C139.772 274.72 143.897 269.593 149.445 269.593H368.341C372.562 269.593 376.175 272.63 376.899 276.794Z" fill="#2C346B"/>
<path d="M251.554 462.487L266.197 387.773C266.731 385.058 265.534 382.859 263.53 382.859C261.526 382.859 259.47 385.058 258.936 387.773L244.297 462.487H228.326L249.849 352.665C250.218 350.796 251.853 349.447 253.757 349.447H286.289C288.796 349.447 290.678 351.737 290.197 354.196L268.973 462.487H251.554Z" fill="#5A67A8"/>
<path d="M201.239 464.279H303.903V463.142C303.903 460.991 302.16 459.251 300.013 459.251H205.13C202.982 459.251 201.239 460.991 201.239 463.142V464.279Z" fill="#5A67A8"/>
<path d="M204.331 432.007C205.19 432.007 205.888 432.705 205.888 433.564C205.888 434.419 205.19 435.117 204.331 435.117H184.327C183.468 435.117 182.77 434.419 182.77 433.564C182.77 432.705 183.468 432.007 184.327 432.007H204.331ZM184.327 436.553H204.331C205.984 436.553 207.324 435.208 207.324 433.564C207.324 431.912 205.984 430.571 204.331 430.571H184.327C182.674 430.571 181.334 431.912 181.334 433.564C181.334 435.208 182.674 436.553 184.327 436.553Z" fill="#5A67A8"/>
<path d="M462.786 204.232C462.218 210.525 465.315 215.717 469.709 215.83C474.103 215.943 478.123 210.933 478.692 204.639C479.26 198.341 476.163 193.149 471.769 193.037C467.375 192.924 463.354 197.938 462.786 204.232Z" fill="#F8D9B5"/>
<path d="M475.898 193.283L471.769 193.036L471.73 194.233L475.898 193.283Z" fill="#F8D9B5"/>
<path d="M472.854 215.947L469.349 215.826L469.705 214.338L472.854 215.947Z" fill="#F8D9B5"/>
<path d="M466.243 204.401C465.675 210.699 468.776 215.891 473.166 216.004C477.56 216.117 483.242 211.107 483.814 204.813C484.383 198.515 479.62 193.323 475.226 193.21C470.837 193.098 466.811 198.107 466.243 204.401Z" fill="#F7EBDA"/>
<path d="M476.05 205.351C476.05 207.481 477.252 209.211 478.74 209.211C480.223 209.211 481.429 207.481 481.429 205.351C481.429 203.217 480.223 201.486 478.74 201.486C477.252 201.486 476.05 203.217 476.05 205.351Z" fill="#F8D9B5"/>
<path d="M455.651 227.216C470.702 224.757 478.974 207.693 479.316 206.968L478.019 206.353C477.941 206.522 469.722 223.464 455.421 225.802L455.651 227.216Z" fill="#F8D9B5"/>
<path d="M450.967 226.722C450.967 228.101 452.216 229.22 453.751 229.22C455.291 229.22 456.536 228.101 456.536 226.722C456.536 225.343 455.291 224.224 453.751 224.224C452.216 224.224 450.967 225.343 450.967 226.722Z" fill="#F7EBDA"/>
<mask id="mask13_254_914" style="mask-type:alpha" maskUnits="userSpaceOnUse" x="390" y="463" width="17" height="15">
<path d="M406.542 463.038H390.996V477.915H406.542V463.038Z" fill="black"/>
</mask>
<g mask="url(#mask13_254_914)">
<path d="M392.107 477.915C391.989 477.161 391.924 476.38 391.924 475.582C391.924 469.006 396.292 463.671 399.645 463.671C403.002 463.671 405.726 469.006 405.726 475.582C405.726 476.38 405.683 477.161 405.609 477.915H392.107Z" fill="#FFE677"/>
</g>
<path d="M419.246 93.5209H466.764C476.653 93.5209 484.747 85.4271 484.747 75.5376C484.747 65.648 476.653 57.5586 466.764 57.5586H419.246C409.361 57.5586 401.267 65.648 401.267 75.5376C401.267 85.4271 409.361 93.5209 419.246 93.5209Z" fill="#00A0FF"/>
<path d="M273.701 77.2508H301.097C307.924 77.2508 313.511 71.664 313.511 64.8368C313.511 58.0096 307.924 52.4229 301.097 52.4229H273.701C266.874 52.4229 261.287 58.0096 261.287 64.8368C261.287 71.664 266.874 77.2508 273.701 77.2508Z" fill="#00F6B6"/>
<path d="M352.323 244.657H373.269C387.413 244.657 398.986 233.085 398.986 218.945C398.986 204.8 387.413 193.228 373.269 193.228H352.323C338.178 193.228 326.606 204.8 326.606 218.94C326.606 233.085 338.178 244.657 352.323 244.657Z" fill="white"/>
<path d="M389.396 235.305L395.251 250.755L378.205 241.165L389.396 235.305Z" fill="white"/>
<path d="M370.12 219.434C370.12 221.933 372.145 223.958 374.644 223.958C377.142 223.958 379.168 221.933 379.168 219.434C379.168 216.936 377.142 214.91 374.644 214.91C372.145 214.91 370.12 216.936 370.12 219.434Z" fill="#252525"/>
<path d="M357.203 219.434C357.203 221.933 359.228 223.958 361.731 223.958C364.229 223.958 366.255 221.933 366.255 219.434C366.255 216.936 364.229 214.91 361.731 214.91C359.228 214.91 357.203 216.936 357.203 219.434Z" fill="#252525"/>
<path d="M345.114 219.434C345.114 221.933 347.139 223.958 349.638 223.958C352.141 223.958 354.162 221.933 354.162 219.434C354.162 216.936 352.141 214.91 349.638 214.91C347.139 214.91 345.114 216.936 345.114 219.434Z" fill="#252525"/>
<path d="M291.004 64.7504C291.004 66.2902 292.253 67.5394 293.793 67.5394C295.332 67.5394 296.582 66.2902 296.582 64.7504C296.582 63.2062 295.332 61.957 293.793 61.957C292.253 61.957 291.004 63.2062 291.004 64.7504Z" fill="#171717"/>
<path d="M283.396 64.7504C283.396 66.2902 284.645 67.5394 286.185 67.5394C287.724 67.5394 288.974 66.2902 288.974 64.7504C288.974 63.2062 287.724 61.957 286.185 61.957C284.645 61.957 283.396 63.2062 283.396 64.7504Z" fill="#171717"/>
<path d="M275.584 64.7504C275.584 66.2902 276.833 67.5394 278.373 67.5394C279.912 67.5394 281.162 66.2902 281.162 64.7504C281.162 63.2062 279.912 61.957 278.373 61.957C276.833 61.957 275.584 63.2062 275.584 64.7504Z" fill="#171717"/>
<path d="M450.689 75.2903C450.689 77.6977 452.641 79.6495 455.048 79.6495C457.455 79.6495 459.407 77.6977 459.407 75.2903C459.407 72.883 457.455 70.9312 455.048 70.9312C452.641 70.9312 450.689 72.883 450.689 75.2903Z" fill="#171717"/>
<path d="M438.262 75.2903C438.262 77.6977 440.214 79.6495 442.621 79.6495C445.028 79.6495 446.98 77.6977 446.98 75.2903C446.98 72.883 445.028 70.9312 442.621 70.9312C440.214 70.9312 438.262 72.883 438.262 75.2903Z" fill="#171717"/>
<path d="M426.33 75.2903C426.33 77.6977 428.277 79.6495 430.685 79.6495C433.092 79.6495 435.044 77.6977 435.044 75.2903C435.044 72.883 433.092 70.9312 430.685 70.9312C428.277 70.9312 426.33 72.883 426.33 75.2903Z" fill="#171717"/>
<path d="M272.057 75.8847L263.972 81.8834L265.668 73.0176L272.057 75.8847Z" fill="#00F6B6"/>
<path d="M471.292 92.0854L479.377 98.0885L477.681 89.2183L471.292 92.0854Z" fill="#00A0FF"/>
<defs>
<linearGradient id="paint0_linear_254_914" x1="320.793" y1="89.3347" x2="271.203" y2="183.652" gradientUnits="userSpaceOnUse">
<stop offset="0.191401" stop-color="#00F6B6"/>
<stop offset="1" stop-color="#00A0FF"/>
</linearGradient>
<linearGradient id="paint1_linear_254_914" x1="653.57" y1="107.302" x2="601.493" y2="211.141" gradientUnits="userSpaceOnUse">
<stop offset="0.191401" stop-color="#00F6B6"/>
<stop offset="1" stop-color="#00A0FF"/>
</linearGradient>
</defs>
</svg>
