<svg width="18" height="13" viewBox="0 0 18 13" fill="none" xmlns="http://www.w3.org/2000/svg">
<path fill-rule="evenodd" clip-rule="evenodd" d="M15.6677 0.500008C16.4021 0.701518 16.9804 1.29526 17.1767 2.04927C17.5333 3.41581 17.5333 6.26712 17.5333 6.26712C17.5333 6.26712 17.5333 9.11833 17.1767 10.485C16.9804 11.239 16.4021 11.8327 15.6677 12.0343C14.3369 12.4005 9.00001 12.4005 9.00001 12.4005C9.00001 12.4005 3.66309 12.4005 2.33218 12.0343C1.59783 11.8327 1.0195 11.239 0.823232 10.485C0.466675 9.11833 0.466675 6.26712 0.466675 6.26712C0.466675 6.26712 0.466675 3.41581 0.823232 2.04927C1.0195 1.29526 1.59783 0.701518 2.33218 0.500008C3.66309 0.133789 9.00001 0.133789 9.00001 0.133789C9.00001 0.133789 14.3369 0.133789 15.6677 0.500008ZM7.40002 3.86707V9.2004L11.6667 6.53383L7.40002 3.86707Z" fill="white"/>
</svg>
