<svg width="112" height="32" viewBox="0 0 112 32" fill="none" xmlns="http://www.w3.org/2000/svg">
<path fill-rule="evenodd" clip-rule="evenodd" d="M0 6.89289H3.0956C4.75345 6.89289 6.0974 8.20961 6.0974 9.83386V11.5205C7.57957 10.7941 9.25217 10.3853 11.0222 10.3853C17.1096 10.3853 22.0444 15.2201 22.0444 21.1841C22.0444 23.9625 20.9735 26.4958 19.214 28.4094C17.3327 30.5434 14.8719 31.6561 12.3424 31.9063C11.9095 31.9569 11.469 31.983 11.0222 31.983C8.20339 31.983 5.63172 30.9463 3.68271 29.2408C1.47979 27.3909 0 24.6728 0 21.322V6.89289ZM6.0974 21.1841C6.0974 23.8489 8.30232 26.0092 11.0222 26.0092C13.7421 26.0092 15.947 23.8489 15.947 21.1841C15.947 18.5194 13.7421 16.3591 11.0222 16.3591C8.30232 16.3591 6.0974 18.5194 6.0974 21.1841Z" fill="url(#paint0_linear_101_197)"/>
<path d="M3.0956 6.89289H0V21.322C0 32.6723 16.7913 36.854 21.5285 24.4468C12.4762 31.8911 6.0974 26.0551 6.0974 21.322V9.83386C6.0974 8.20961 4.75345 6.89289 3.0956 6.89289Z" fill="url(#paint1_linear_101_197)"/>
<circle cx="3" cy="3" r="3" fill="#00F6B6"/>
<path d="M42.7884 22.2003H38.6684L38.6545 19.2384H42.1663C42.7193 19.2384 43.1709 19.1453 43.5212 18.959C43.8807 18.7634 44.1434 18.4793 44.3093 18.1067C44.4844 17.7249 44.5719 17.2638 44.5719 16.7236C44.5719 16.0995 44.4936 15.6012 44.3369 15.2287C44.1802 14.8468 43.9267 14.5674 43.5765 14.3904C43.2262 14.2134 42.77 14.1249 42.2077 14.1249H40.0509V31.0721H36V10.7299H42.2077C43.2124 10.7299 44.1111 10.8417 44.9038 11.0652C45.6964 11.2888 46.3693 11.6287 46.9223 12.0851C47.4754 12.5415 47.8947 13.119 48.1805 13.8176C48.4754 14.5161 48.6229 15.3404 48.6229 16.2905C48.6229 17.1288 48.457 17.9018 48.1252 18.6097C47.7933 19.3176 47.2726 19.8951 46.5629 20.3421C45.8623 20.7892 44.9452 21.0407 43.8115 21.0966L42.7884 22.2003ZM42.6502 31.0721H37.5208L39.1384 27.691H42.6502C43.1848 27.691 43.618 27.5746 43.9498 27.3417C44.2816 27.1089 44.5213 26.7969 44.6687 26.4057C44.8162 26.0052 44.8899 25.5488 44.8899 25.0365C44.8899 24.459 44.8208 23.956 44.6826 23.5276C44.5535 23.0991 44.3369 22.7731 44.0327 22.5496C43.7286 22.3168 43.3184 22.2003 42.8023 22.2003H39.3182L39.3458 19.2384H43.5765L44.5305 20.412C45.6089 20.3747 46.4707 20.5843 47.1159 21.0407C47.7611 21.4878 48.2219 22.0746 48.4985 22.8011C48.7842 23.5183 48.9271 24.282 48.9271 25.0924C48.9271 26.3964 48.6828 27.4954 48.1943 28.3896C47.715 29.2744 47.0099 29.9451 46.079 30.4015C45.148 30.8485 44.0051 31.0721 42.6502 31.0721Z" fill="white"/>
<path d="M56.1026 10.7299V31.0721H52.0793V10.7299H56.1026Z" fill="white"/>
<path d="M72.9423 23.9048H68.8223V20.5098H72.9423C73.5138 20.5098 73.9793 20.3794 74.3387 20.1186C74.7074 19.8578 74.9747 19.4992 75.1406 19.0428C75.3065 18.5771 75.3895 18.0555 75.3895 17.478C75.3895 16.8912 75.3019 16.3464 75.1268 15.8434C74.9609 15.3311 74.6982 14.9166 74.3387 14.6C73.9885 14.2833 73.523 14.1249 72.9423 14.1249H70.1219V31.0721H66.0848V10.7299H72.9423C74.2973 10.7299 75.4632 11.0187 76.4402 11.5961C77.4173 12.1736 78.1638 12.97 78.68 13.9852C79.2054 14.9912 79.4681 16.1461 79.4681 17.4501C79.4681 18.7634 79.2054 19.9044 78.68 20.8731C78.1638 21.8324 77.4173 22.5776 76.4402 23.1085C75.4632 23.6394 74.2973 23.9048 72.9423 23.9048Z" fill="white"/>
<path d="M82.1917 10.7299H88.6484C89.9941 10.7299 91.1416 10.9628 92.091 11.4285C93.0403 11.8942 93.7685 12.5834 94.2754 13.4962C94.7824 14.409 95.0358 15.536 95.0358 16.8773C95.0358 17.9764 94.8884 18.9171 94.5934 19.6995C94.2985 20.4725 93.8791 21.1199 93.3353 21.6415C92.7915 22.1538 92.1417 22.5636 91.3858 22.8709L90.1554 23.6114H84.9154L84.9016 20.2164H88.5378C89.0908 20.2164 89.547 20.0953 89.9065 19.8532C90.2752 19.6017 90.5471 19.2524 90.7222 18.8053C90.9066 18.3489 90.9987 17.818 90.9987 17.2126C90.9987 16.5699 90.9158 16.0204 90.7499 15.564C90.5932 15.0983 90.3397 14.7443 89.9894 14.5022C89.6484 14.2507 89.2014 14.1249 88.6484 14.1249H86.2427V31.0721H82.1917V10.7299ZM91.3305 31.0721L87.6391 22.0047L91.8836 21.9908L95.658 30.8765V31.0721H91.3305Z" fill="white"/>
<path d="M112 19.3222V22.7173C112 24.1516 111.825 25.4091 111.475 26.4895C111.134 27.5606 110.645 28.4594 110.009 29.186C109.382 29.9031 108.622 30.4434 107.728 30.8066C106.843 31.1699 105.861 31.3515 104.783 31.3515C103.705 31.3515 102.718 31.1699 101.824 30.8066C100.939 30.4434 100.174 29.9031 99.5292 29.186C98.8932 28.4594 98.4001 27.5606 98.0498 26.4895C97.6996 25.4091 97.5245 24.1516 97.5245 22.7173V19.3222C97.5245 17.8506 97.695 16.5653 98.036 15.4662C98.3771 14.3578 98.8702 13.4357 99.5154 12.6999C100.161 11.9547 100.926 11.3959 101.81 11.0233C102.695 10.6414 103.677 10.4505 104.755 10.4505C105.834 10.4505 106.815 10.6414 107.7 11.0233C108.585 11.3959 109.35 11.9547 109.995 12.6999C110.64 13.4357 111.134 14.3578 111.475 15.4662C111.825 16.5653 112 17.8506 112 19.3222ZM107.977 22.7173V19.2943C107.977 18.3256 107.908 17.5013 107.769 16.8214C107.631 16.1321 107.424 15.5686 107.147 15.1309C106.871 14.6931 106.534 14.3718 106.138 14.1669C105.742 13.9619 105.281 13.8595 104.755 13.8595C104.23 13.8595 103.764 13.9619 103.359 14.1669C102.963 14.3718 102.626 14.6931 102.35 15.1309C102.082 15.5686 101.88 16.1321 101.741 16.8214C101.612 17.5013 101.548 18.3256 101.548 19.2943V22.7173C101.548 23.6487 101.617 24.445 101.755 25.1063C101.893 25.7677 102.101 26.3079 102.377 26.727C102.654 27.1462 102.99 27.4582 103.387 27.6631C103.792 27.8587 104.258 27.9565 104.783 27.9565C105.299 27.9565 105.755 27.8587 106.152 27.6631C106.557 27.4582 106.894 27.1462 107.161 26.727C107.428 26.3079 107.631 25.7677 107.769 25.1063C107.908 24.445 107.977 23.6487 107.977 22.7173Z" fill="white"/>
<defs>
<linearGradient id="paint0_linear_101_197" x1="22.0468" y1="19.44" x2="-3.71529" y2="19.44" gradientUnits="userSpaceOnUse">
<stop offset="0.0630053" stop-color="#00A0FF"/>
<stop offset="1" stop-color="#090B3C"/>
</linearGradient>
<linearGradient id="paint1_linear_101_197" x1="0" y1="6.89289" x2="21.0418" y2="32.4245" gradientUnits="userSpaceOnUse">
<stop stop-color="#00F6B6"/>
<stop offset="0.57292" stop-color="#00A0FF"/>
</linearGradient>
</defs>
</svg>
